<svg width="159" height="48" viewBox="0 0 159 48" fill="none" xmlns="http://www.w3.org/2000/svg">
<path d="M19.2384 5.46639C19.1236 5.4714 18.8815 5.63951 17.9413 6.32713C17.2546 6.82931 15.0085 8.4682 12.9502 9.969C10.8918 11.4698 7.1386 14.2065 4.60977 16.0505C2.08093 17.8945 0.00671841 19.407 0.000115 19.4118C-0.00487817 19.4168 0.153336 19.9265 0.355894 20.5446C0.837271 22.0142 1.00067 22.518 3.05972 28.8872C4.0188 31.8538 4.93277 34.6796 5.09074 35.1667C5.24875 35.6538 5.81732 37.4105 6.35415 39.071L7.33005 42.0899H19.2115H31.0925L31.175 41.8351C31.2203 41.695 31.8851 39.636 32.6525 37.2598C33.4199 34.8835 34.1776 32.5409 34.3358 32.0538C35.7789 27.6108 38.419 19.417 38.4101 19.4097C38.3976 19.3997 28.0502 11.8513 22.7338 7.97414C20.9107 6.64454 19.3677 5.52463 19.3045 5.48543C19.2845 5.47416 19.2648 5.46538 19.2385 5.46639L19.2384 5.46639ZM19.2006 5.76345L19.3637 5.87862C19.5783 6.02996 22.3688 8.06197 22.8146 8.39145C23.0057 8.53277 23.5391 8.92119 24 9.25473C24.4608 9.58827 26.7703 11.272 29.1323 12.9965C31.4944 14.721 34.3052 16.7716 35.3785 17.5537C38.0455 19.497 38.0516 19.5018 38.0515 19.5693C38.0515 19.6021 37.9695 19.8827 37.8694 20.1926C37.7692 20.5026 36.6614 23.9319 35.4075 27.8136C34.1537 31.6953 32.9262 35.4872 32.6801 36.2399C32.1835 37.7588 30.9707 41.5122 30.9155 41.7011L30.8799 41.8216H19.2122H7.54456L7.28825 41.0299C7.14739 40.5945 6.23918 37.7871 5.26987 34.7909C4.30055 31.7948 3.4019 29.0174 3.27298 28.6189C0.944842 21.4239 0.359215 19.6028 0.359215 19.557C0.359215 19.509 0.623092 19.3063 1.44765 18.7203C1.65696 18.5716 2.34861 18.0657 3.62076 17.1313C3.92953 16.9045 4.67507 16.3609 5.27787 15.9235C5.88066 15.4862 6.5424 15.0034 6.74823 14.8504C6.95408 14.6974 8.01293 13.9252 9.10091 13.1344C11.227 11.589 12.1614 10.9069 12.8506 10.3977C13.0903 10.2206 13.5203 9.9065 13.8063 9.69987C14.0922 9.49324 14.5733 9.14303 14.8753 8.92164C15.1774 8.70025 15.6138 8.38221 15.8449 8.21452C16.076 8.04682 16.9253 7.42674 17.7326 6.83665L19.2006 5.76345ZM19.2368 6.29326C19.1271 6.29828 18.8961 6.45895 17.9983 7.11551C17.3426 7.59499 15.198 9.15978 13.2327 10.5928C11.2673 12.0257 7.68373 14.6389 5.26913 16.3996C2.85453 18.1603 0.874036 19.6044 0.867732 19.609C0.862738 19.614 1.01424 20.1004 1.20749 20.6907C1.66711 22.0939 1.82303 22.5751 3.78906 28.6565C4.70479 31.4891 5.57733 34.1871 5.72819 34.6521C5.87913 35.1172 6.42209 36.7949 6.93467 38.3803L7.86673 41.2626H19.2111H30.5559L30.6343 41.0193C30.6776 40.8855 31.3125 38.9197 32.0452 36.6508C32.7779 34.3819 33.5011 32.1448 33.6521 31.6797C35.0301 27.4374 37.5512 19.6143 37.5426 19.6073C37.5302 19.5973 27.6509 12.3901 22.5746 8.68803C20.8339 7.41851 19.3604 6.34932 19.3 6.31189C19.281 6.30061 19.2622 6.29246 19.2367 6.29321L19.2368 6.29326ZM19.2011 6.57723L19.3566 6.68726C19.5615 6.8318 22.2258 8.77164 22.6515 9.08624C22.834 9.22108 23.3433 9.59211 23.7834 9.91059C24.2234 10.2291 26.4286 11.8369 28.6839 13.4835C30.9392 15.1301 33.6232 17.0883 34.648 17.835C37.1946 19.6906 37.2005 19.6948 37.2005 19.7592C37.2005 19.7906 37.1221 20.0587 37.0264 20.3546C36.9306 20.6506 35.8727 23.9252 34.6754 27.6316C33.4782 31.3379 32.3065 34.9583 32.0715 35.6771C31.5973 37.1273 30.4393 40.7112 30.3866 40.8915L30.3529 41.0066H19.2121H8.07177L7.82683 40.2508C7.69233 39.8351 6.82545 37.1541 5.89992 34.2933C4.97438 31.4325 4.11638 28.7806 3.99324 28.4001C1.77027 21.5302 1.21099 19.7916 1.21099 19.7479C1.21099 19.702 1.46282 19.5084 2.25012 18.9489C2.44999 18.8069 3.11034 18.324 4.325 17.4318C4.61981 17.2152 5.33194 16.6963 5.9075 16.2786C6.48308 15.861 7.11476 15.3998 7.31127 15.2537C7.50782 15.1077 8.51847 14.3703 9.55731 13.6152C11.5873 12.1395 12.4799 11.4886 13.138 11.0024C13.3668 10.8333 13.7771 10.5332 14.0502 10.336C14.3232 10.1387 14.7828 9.80423 15.0712 9.59285C15.3596 9.38145 15.7763 9.07757 15.9969 8.91746C16.2176 8.75735 17.0286 8.16525 17.7995 7.60179L19.2011 6.57723ZM18.9684 11.0405C18.9158 11.0416 18.8467 11.048 18.7737 11.0578C18.5086 11.0931 18.5084 11.0935 18.0971 11.6282C17.6546 12.2036 17.6004 12.2223 17.598 11.7966C17.5973 11.6697 17.582 11.4792 17.5648 11.3735C17.5347 11.1906 17.5237 11.1813 17.3388 11.1813C17.232 11.1813 17.1343 11.1986 17.1217 11.2198C17.1092 11.2409 17.1413 11.7078 17.1935 12.2574C17.2454 12.807 17.2887 13.3232 17.2896 13.4042C17.2906 13.5417 17.3021 13.5492 17.4512 13.5194C17.5388 13.5019 17.6436 13.4876 17.6838 13.4876C17.7438 13.4876 17.7507 13.4235 17.7235 13.1414C17.691 12.807 17.6954 12.789 17.8525 12.5908C17.9419 12.4781 18.0224 12.3781 18.0313 12.3691C18.04 12.3603 18.2146 12.5874 18.4187 12.8744L18.7897 13.3962L19.0375 13.3726C19.1736 13.3593 19.2979 13.3355 19.3137 13.3197C19.3296 13.3039 19.1219 13.0131 18.8529 12.6731C18.5838 12.3331 18.3639 12.034 18.3639 12.0087C18.3639 11.9834 18.5272 11.7628 18.7269 11.5183C18.9266 11.2737 19.0785 11.0621 19.0645 11.0481C19.0595 11.0406 19.0213 11.0393 18.9686 11.0406L18.9684 11.0405ZM20.1083 11.0786C20.0529 11.0792 20.0234 11.0874 20.0185 11.1009C19.97 11.2384 19.6928 13.3019 19.7192 13.3289C19.7352 13.3456 20.0749 13.4086 20.473 13.4686C20.871 13.5288 21.2458 13.5803 21.306 13.5838C21.4178 13.5888 21.4776 13.5027 21.4776 13.332C21.4776 13.2269 21.4589 13.2218 20.6863 13.1128L20.2268 13.0476L20.2428 12.7425C20.2515 12.5746 20.2692 12.4282 20.2808 12.4166C20.2933 12.4054 20.549 12.4314 20.8511 12.4738C21.1533 12.5168 21.4177 12.5421 21.4388 12.5301C21.4598 12.5188 21.4772 12.4336 21.4772 12.3426V12.1772L20.9284 12.1023L20.3795 12.027L20.3882 11.7794C20.392 11.6431 20.4061 11.5219 20.4179 11.5103C20.4304 11.499 20.6785 11.5236 20.971 11.5648C21.7084 11.6701 21.6813 11.674 21.6813 11.4666C21.6813 11.2955 21.6751 11.2893 21.4389 11.255C21.3057 11.2356 20.9356 11.1805 20.6169 11.1327C20.3665 11.0951 20.2007 11.0773 20.1081 11.0784L20.1083 11.0786ZM22.6127 11.5259C22.6002 11.5259 22.5936 11.527 22.5899 11.5309C22.5487 11.5707 21.876 13.5273 21.8665 13.6349C21.8628 13.6739 21.9408 13.7344 22.039 13.7694C22.1372 13.8044 22.2311 13.8188 22.2477 13.8013C22.2636 13.7835 22.3299 13.6193 22.3936 13.4361C22.4574 13.2529 22.5271 13.0838 22.5483 13.0607C22.5695 13.0378 22.7315 13.0657 22.9083 13.125C23.3717 13.2777 23.5788 13.2656 23.7978 13.0725C24.1218 12.787 24.1646 12.3011 23.8888 12.0412C23.7488 11.9095 22.7826 11.5249 22.6127 11.5254V11.5259ZM14.7533 11.8767C14.7279 11.877 14.6934 11.8867 14.6437 11.9042C14.5296 11.9442 14.4859 11.9984 14.4612 12.1306C14.4433 12.2261 14.3526 12.4182 14.2593 12.5572C14.0965 12.7999 14.0928 12.8167 14.1628 12.9821L14.2354 13.1547L14.3472 13.0248C14.4085 12.9533 14.4958 12.8379 14.5419 12.7683C14.5878 12.6989 14.6358 12.6535 14.6476 12.6677C14.6681 12.6917 15.0805 13.7064 15.1944 14.013C15.2233 14.0906 15.2671 14.1538 15.2918 14.1538C15.3517 14.1538 15.6581 14.0456 15.6581 14.0243C15.6581 14.0155 15.4833 13.5735 15.2699 13.043C15.0564 12.5124 14.8619 12.0275 14.8378 11.9651C14.8135 11.9026 14.796 11.8763 14.7534 11.8767L14.7533 11.8767ZM22.9019 12.0004L23.1726 12.1024C23.4381 12.2029 23.6215 12.3601 23.6215 12.487C23.6215 12.5224 23.5738 12.6121 23.5156 12.6864C23.3937 12.8418 23.2492 12.8535 22.9141 12.7347C22.7095 12.6619 22.6944 12.6445 22.721 12.5109C22.737 12.4312 22.7841 12.2839 22.826 12.1833L22.9019 12.0004ZM25.3988 12.7189C25.3689 12.7189 24.9221 13.0586 24.4056 13.4739L23.4664 14.2288L23.5824 14.3185C23.7882 14.4781 23.8675 14.4771 24.076 14.311C24.1848 14.2244 24.2917 14.1536 24.3129 14.1536C24.3341 14.1536 24.5214 14.2519 24.729 14.3715L25.1063 14.5891L25.0741 14.8764C25.0426 15.1591 25.045 15.1648 25.2123 15.2725C25.4843 15.4474 25.4445 15.5524 25.6376 14.1536C25.7095 13.6322 25.7808 13.145 25.7953 13.0711C25.8174 12.9585 25.7915 12.9193 25.6373 12.8278C25.536 12.7676 25.4285 12.7186 25.3987 12.7186L25.3988 12.7189ZM11.9871 13.3084C11.9692 13.3084 11.8891 13.36 11.8092 13.4231L11.6638 13.5377L12.1165 14.1022C12.547 14.639 12.6712 14.8221 12.5566 14.751C12.5283 14.7334 12.1475 14.5936 11.7106 14.4399L10.9164 14.1602L10.7423 14.299L10.5685 14.4378L11.2881 15.3392C12.04 16.2811 12.0486 16.288 12.2493 16.0654C12.3328 15.9728 12.3168 15.944 11.877 15.3942C11.6244 15.0784 11.4371 14.82 11.4605 14.82C11.4843 14.82 11.8629 14.946 12.3024 15.1001L13.1012 15.3803L13.2564 15.2495C13.3418 15.1775 13.4116 15.0996 13.4116 15.0769C13.4116 15.0234 12.0303 13.3084 11.9872 13.3084L11.9871 13.3084ZM25.2761 13.3451C25.3318 13.3539 25.3065 13.499 25.2463 13.8275C25.2132 14.0069 25.1619 14.1528 25.1315 14.1517C25.056 14.1479 24.6417 13.8948 24.6459 13.8538C24.6468 13.8356 24.797 13.6983 24.9777 13.5486C25.1406 13.4137 25.2328 13.3382 25.2761 13.3451H25.2761ZM27.2877 13.9862L26.9054 14.3645C26.6953 14.5727 26.3375 14.9464 26.1104 15.1948L25.6976 15.6464L25.8339 15.7829L25.9702 15.9197L26.506 15.3835C26.8007 15.0887 27.0418 14.8659 27.0418 14.8884C27.0418 14.911 26.9612 15.301 26.8622 15.7551L26.6822 16.5807L26.8453 16.7496L27.0081 16.9184L27.812 16.0869L28.6159 15.2557L28.4628 15.1017L28.3103 14.9481L27.8032 15.4813C27.5243 15.7746 27.2844 16.0028 27.2699 15.9883C27.2557 15.9735 27.3243 15.599 27.4233 15.1554C27.5223 14.7119 27.6033 14.3179 27.6033 14.2803C27.6033 14.2427 27.5323 14.1613 27.4457 14.0992L27.2877 13.9862ZM19.1413 14.8723C17.3253 14.8728 15.7139 15.3748 14.1307 16.4326C13.3545 16.9512 12.3103 17.9996 11.7936 18.7787C11.1501 19.7492 10.7663 20.6058 10.5007 21.6639C10.2806 22.541 10.2217 23.1369 10.2516 24.1878C10.2881 25.463 10.5072 26.4306 11.0201 27.5741C12.349 30.5368 15.2176 32.5786 18.4221 32.8435C19.1541 32.904 19.1796 32.904 19.8638 32.8485C20.6999 32.7797 21.234 32.6741 21.9669 32.4325C23.9154 31.7902 25.5061 30.5805 26.6563 28.8659C28.5632 26.0232 28.6715 22.2906 26.9332 19.3021C26.0951 17.8612 24.7387 16.5828 23.2569 15.8371C21.9084 15.1585 20.6885 14.8727 19.1413 14.8731V14.8723ZM9.9464 15.078C9.92867 15.0788 9.84128 15.1803 9.75164 15.3027L9.58887 15.5253L9.69598 16.1723C9.75502 16.5282 9.7891 16.8338 9.7715 16.8516C9.75378 16.8694 9.57396 16.7497 9.37185 16.5858L9.00425 16.2879L8.86022 16.461C8.78082 16.5563 8.73315 16.6516 8.75398 16.6726C8.77482 16.6935 9.17092 17.0106 9.63418 17.3771C10.0974 17.7436 10.4949 18.0444 10.5173 18.0458C10.5583 18.0495 10.8039 17.7892 10.8069 17.7402C10.8076 17.7254 10.6853 17.6178 10.535 17.4999C10.2807 17.3005 10.2593 17.2668 10.2298 17.0166C10.2121 16.8687 10.2033 16.7429 10.2098 16.7373C10.2147 16.7323 10.4396 16.7587 10.7063 16.7969C11.4002 16.8963 11.4779 16.8893 11.6123 16.7181C11.8425 16.425 11.8538 16.4317 10.9766 16.3614C10.5333 16.3256 10.1563 16.273 10.1385 16.2442C10.1208 16.2152 10.077 15.9408 10.042 15.634C10.0068 15.3272 9.96412 15.0768 9.94676 15.0779L9.9464 15.078ZM19.1413 15.1902C20.6497 15.1898 21.8028 15.4601 23.1148 16.1203C24.5362 16.8356 25.8554 18.079 26.6596 19.4617C28.3371 22.3458 28.232 25.9469 26.3936 28.6875C25.2805 30.3468 23.7533 31.5086 21.8683 32.13C21.1527 32.3659 20.6588 32.4637 19.8381 32.5312C19.1546 32.5874 19.1796 32.5871 18.4482 32.5262C15.361 32.271 12.5901 30.2994 11.3088 27.443C10.8095 26.3298 10.6031 25.4218 10.5678 24.1785V24.1783C10.5382 23.1428 10.5926 22.5983 10.8076 21.7412C11.0654 20.7141 11.429 19.9018 12.0571 18.9546C12.5372 18.2304 13.5851 17.1785 14.3065 16.6965C15.8456 15.6681 17.3833 15.1904 19.1413 15.19V15.1902ZM18.189 16.4352C18.1664 16.4352 18.1422 16.4363 18.1162 16.4402C17.9593 16.449 17.7797 16.4923 17.5421 16.5502C17.3044 16.6081 17.0393 16.6814 16.8216 16.7533C15.7242 17.1165 14.6958 17.7763 13.8493 18.6555C12.8105 19.7344 12.1693 20.9457 11.8553 22.4214C11.7016 23.1436 11.7009 24.5764 11.8551 25.2939C11.9066 25.5341 11.9912 25.8491 12.0692 26.1119C12.1083 26.2434 12.1454 26.3604 12.1776 26.4513C12.1936 26.4968 12.2077 26.5348 12.2248 26.5727C12.2335 26.5918 12.2408 26.6095 12.2604 26.6392C12.2691 26.6541 12.2808 26.6719 12.3102 26.7011C12.3395 26.73 12.3937 26.7944 12.5361 26.7944C12.6438 26.7944 12.645 26.7755 12.6597 26.7695C12.6738 26.7645 12.6809 26.7595 12.6867 26.7562C12.6992 26.7512 12.7044 26.7474 12.7089 26.7429C12.7201 26.7379 12.7281 26.7316 12.7386 26.7238C12.7593 26.7105 12.785 26.6927 12.8173 26.6704C12.8823 26.6258 12.9725 26.5627 13.0829 26.4851C13.3038 26.3298 13.6045 26.1166 13.9328 25.8817C14.2598 25.6476 14.5385 25.4563 14.7459 25.3201L15.0271 25.1597C15.0209 25.1324 15.0146 25.1063 15.0094 25.0828C14.9917 24.9799 14.9698 24.8671 14.9591 24.8327C14.9466 24.7964 14.4354 25.1308 13.748 25.6227C13.0926 26.0917 12.5469 26.4754 12.5352 26.4754C12.4981 26.4754 12.2607 25.6772 12.1638 25.2258C12.0323 24.6133 12.033 23.1058 12.1645 22.4866C12.4677 21.0615 13.0737 19.9164 14.0762 18.8752C14.8886 18.0314 15.8753 17.3995 16.92 17.0538C17.3304 16.9179 17.961 16.766 18.1328 16.7563C18.1453 16.7556 18.1538 16.7556 18.1609 16.7563C18.1671 16.757 18.1734 16.7601 18.1769 16.7613C18.1881 16.7713 18.1337 17.4254 18.0573 18.2128C17.9807 19.0002 17.9276 19.6538 17.9388 19.6652C17.9513 19.6764 18.0744 19.6479 18.2149 19.6012C18.2274 19.5962 18.2379 19.5937 18.2505 19.5912L18.2804 19.2595C18.2804 19.2584 18.2806 19.2584 18.2806 19.2557C18.3018 18.9949 18.3343 18.6354 18.3726 18.243C18.4111 17.848 18.4436 17.4869 18.4652 17.2215C18.4939 16.7706 18.5285 16.4332 18.1891 16.4344L18.189 16.4352ZM20.3461 16.4569C20.3278 16.4575 20.3087 16.458 20.288 16.4619C20.2042 16.4706 20.0528 16.5525 19.9993 16.6498C19.9457 16.747 19.9519 16.7945 19.9478 16.8241C19.9391 16.891 19.9441 16.8964 19.9441 16.927C19.9448 16.9577 19.9478 16.9932 19.9478 17.0358C19.9516 17.121 19.9603 17.2331 19.9718 17.3658C19.9932 17.6314 20.0249 17.9795 20.0616 18.3489C20.0973 18.7072 20.1266 19.0314 20.1468 19.2735L20.1678 19.6045C20.3327 19.6555 20.4766 19.6873 20.4882 19.6755C20.5007 19.6642 20.4495 19.0523 20.3765 18.3171C20.3035 17.5819 20.2507 16.9295 20.2593 16.8673C20.2753 16.7551 20.2784 16.7549 20.6361 16.8271C23.0926 17.3232 25.2091 19.2129 25.9932 21.6099C26.2597 22.4245 26.313 22.8052 26.3115 23.887C26.3105 24.7965 26.2955 24.955 26.1733 25.476C26.098 25.7943 25.9942 26.1525 25.9423 26.272L25.8479 26.4891L24.6524 25.6334C23.9947 25.1627 23.4432 24.7906 23.4269 24.8069C23.4109 24.8232 23.3972 24.8972 23.3965 24.9707C23.3962 25.0091 23.3824 25.0714 23.359 25.148L23.6385 25.3126C23.8558 25.4594 24.1479 25.6624 24.4685 25.892L25.9823 26.9757L26.2327 26.3989C26.3153 26.2087 26.4035 25.8794 26.4814 25.5492C26.6067 25.0193 26.6267 24.8 26.6281 23.8874C26.6291 22.795 26.5659 22.3411 26.2943 21.5104C25.4728 18.9994 23.273 17.0356 20.6986 16.5156C20.5615 16.4879 20.4909 16.4609 20.39 16.4576C20.3759 16.4572 20.3603 16.4569 20.3445 16.4576L20.3461 16.4569ZM29.6838 16.734C29.6788 16.7332 29.6726 16.7336 29.6697 16.7351C29.634 16.7484 29.3566 16.9376 29.053 17.1545C28.7495 17.3714 28.413 17.5949 28.3052 17.6513L28.1092 17.7542L27.9839 17.6362C27.8319 17.4928 27.8266 17.3862 27.962 17.2135L28.065 17.0823L27.9444 16.9419C27.7998 16.7732 27.6988 16.7973 27.5503 17.0349C27.3507 17.3541 27.4816 17.7779 27.8588 18.0357C28.0585 18.1721 28.2622 18.1824 28.4869 18.0675C28.6802 17.9686 29.8849 17.1429 29.9206 17.0849C29.9591 17.0225 29.7662 16.7463 29.6846 16.7341L29.6838 16.734ZM8.14847 17.5876C8.11114 17.5876 7.84749 18.108 7.84749 18.1817C7.84749 18.1917 8.12587 18.4241 8.46631 18.6984C8.80675 18.9728 9.06506 19.2036 9.04047 19.2113C9.01587 19.2188 8.66265 19.1707 8.25554 19.1039C7.84843 19.037 7.50059 18.9969 7.48241 19.0151C7.42636 19.0708 7.21942 19.5877 7.2434 19.6117C7.25589 19.623 7.72425 19.8419 8.2842 20.095C8.84416 20.3482 9.30899 20.5564 9.31744 20.5576C9.34341 20.5626 9.48799 20.191 9.46837 20.1712C9.45064 20.1541 8.6843 19.8068 8.15904 19.5783C8.03571 19.5248 7.94682 19.4692 7.96133 19.4546C7.9832 19.4327 9.17998 19.6269 9.57208 19.7162C9.66808 19.738 9.70249 19.7112 9.76386 19.5634C9.80493 19.4648 9.83814 19.3652 9.83814 19.3421C9.83814 19.319 9.52987 19.0593 9.15271 18.7649C8.77555 18.4704 8.47553 18.2208 8.48623 18.2101C8.49746 18.2001 8.85325 18.3452 9.27792 18.5342C9.70258 18.7233 10.057 18.8702 10.0654 18.8605C10.0741 18.8505 10.1192 18.7669 10.1661 18.6743L10.2514 18.5059L10.0065 18.3985C9.87178 18.3392 9.40971 18.1323 8.97913 17.9389C8.54856 17.7455 8.17471 17.5877 8.14868 17.5877L8.14847 17.5876ZM16.7287 17.6697C16.7175 17.6697 16.5389 17.9143 16.3312 18.2135C16.1235 18.5126 15.9466 18.7577 15.9379 18.7577C15.9292 18.7577 15.8414 18.7102 15.7431 18.6518C15.6262 18.5825 15.5202 18.557 15.4362 18.5782C15.268 18.6207 15.0646 18.8381 14.9616 19.0856C14.8506 19.3525 13.6077 21.1292 13.4866 21.1943C13.3607 21.2618 13.1291 21.6614 13.1291 21.8109C13.1291 21.8756 13.2096 22.0089 13.3095 22.1092L13.4904 22.2903L13.1055 22.8396C12.8147 23.2549 12.7346 23.4053 12.7767 23.4562C12.8073 23.4931 12.8584 23.5235 12.8905 23.5231C12.9225 23.5229 13.1176 23.2784 13.3243 22.9806L13.7003 22.4393L13.8993 22.5435C14.032 22.6128 14.1438 22.6366 14.234 22.6136C14.3931 22.5737 14.7081 22.2234 14.7411 22.05C14.7708 21.8948 16.0716 20.0122 16.174 19.9764C16.3106 19.9285 16.5045 19.586 16.5045 19.392C16.5045 19.2464 16.4678 19.1776 16.3286 19.0611L16.1533 18.9138L16.3258 18.6675C16.4208 18.5318 16.6004 18.2764 16.7254 18.1C16.9418 17.7946 16.9479 17.7769 16.8507 17.7247C16.7946 17.6945 16.7398 17.6695 16.729 17.6695L16.7287 17.6697ZM21.6672 17.6697C21.603 17.6697 21.4893 17.7421 21.4893 17.7832C21.4893 17.8111 21.6567 18.0787 21.8611 18.3773L22.2325 18.9203L22.0673 19.0498C21.9262 19.1607 21.9024 19.2129 21.9024 19.407C21.9024 19.6032 21.9313 19.6643 22.1165 19.8564C22.3954 20.1458 23.6303 21.905 23.6725 22.073C23.7236 22.2765 24.0026 22.5795 24.1737 22.6172C24.2854 22.642 24.3774 22.6222 24.5063 22.5411L24.6842 22.4302L24.8347 22.6388C24.9174 22.7535 25.0868 22.9987 25.2112 23.1839C25.4437 23.5301 25.5111 23.5752 25.6121 23.453C25.6579 23.3976 25.5872 23.2661 25.2866 22.8445L24.903 22.3062L25.0215 22.203C25.3382 21.9264 25.3183 21.6344 24.9573 21.2605C24.6863 20.9797 23.4503 19.2197 23.4503 19.1146C23.4503 18.9848 23.1805 18.66 23.0283 18.6068C22.8868 18.5573 22.715 18.5993 22.4672 18.7431C22.4512 18.7519 22.2681 18.5147 22.06 18.215C21.852 17.9153 21.6752 17.6699 21.6671 17.6699L21.6672 17.6697ZM30.438 17.9075C30.4268 17.8962 28.3595 18.8098 28.3307 18.8385C28.3244 18.8448 28.4463 19.1376 28.603 19.4876C28.7597 19.8376 28.9186 20.1975 28.9562 20.2875C29.0217 20.4437 29.0318 20.4484 29.1818 20.3916C29.2682 20.3589 29.3391 20.3056 29.3391 20.273C29.3391 20.2407 29.2357 19.9802 29.1093 19.6941C28.983 19.4081 28.8796 19.1558 28.8796 19.1339C28.8796 19.0901 29.3094 18.8685 29.3943 18.8685C29.4232 18.8685 29.5509 19.0931 29.678 19.3679C29.8051 19.6427 29.9149 19.8736 29.9221 19.8808C29.9403 19.8989 30.2576 19.7854 30.2576 19.7607C30.2576 19.7494 30.1535 19.5069 30.0258 19.2216C29.898 18.9362 29.8003 18.697 29.8087 18.6896C29.8174 18.6821 29.9222 18.6262 30.0426 18.5652L30.2619 18.4543L30.4895 18.9469C30.6148 19.2178 30.7171 19.4594 30.7171 19.4839C30.7171 19.573 30.8286 19.5944 30.9755 19.5334C31.0581 19.4991 31.1256 19.4645 31.1256 19.4559C31.1256 19.4393 30.4546 17.928 30.438 17.9075L30.438 17.9075ZM15.5007 18.8609C15.6067 18.8609 16.173 19.2347 16.2347 19.3455C16.2545 19.3809 16.2548 19.4358 16.2349 19.4674C16.2123 19.5041 16.056 19.423 15.7995 19.241C15.3919 18.9518 15.3207 18.861 15.5006 18.861L15.5007 18.8609ZM22.8931 18.8609C23.0778 18.8609 23.0145 18.9498 22.6439 19.2113C22.227 19.5056 22.1604 19.5304 22.1604 19.3916C22.1604 19.2901 22.7527 18.8609 22.8931 18.8609ZM23.1591 19.1732L23.278 19.3831C23.3432 19.4987 23.4436 19.6531 23.501 19.7263C23.5582 19.7995 23.6057 19.8793 23.6057 19.9036C23.6057 19.9279 23.4613 20.0531 23.2853 20.1817C23.1092 20.3102 22.9487 20.4153 22.9282 20.4153C22.8943 20.4153 22.4186 19.7635 22.4186 19.717C22.4186 19.707 22.585 19.5792 22.7887 19.4352L23.1591 19.1732ZM15.2271 19.2206V19.221C15.276 19.2248 15.3851 19.2859 15.5551 19.4068C15.7393 19.5378 15.9222 19.6637 15.9615 19.6865C16.0194 19.7201 16.0138 19.7471 15.9308 19.8303C15.8746 19.8866 15.7544 20.0418 15.6635 20.1744C15.5727 20.307 15.482 20.4138 15.462 20.4122C15.4144 20.4072 14.9381 20.0775 14.8432 19.9823C14.779 19.918 14.7964 19.8679 14.9735 19.6048C15.0858 19.4379 15.1873 19.2714 15.199 19.2349C15.2027 19.2262 15.2077 19.2217 15.2179 19.2202C15.2217 19.2199 15.2229 19.2195 15.2267 19.2197L15.2271 19.2206ZM19.1935 19.78L19.0539 19.7811C18.7592 19.7862 18.4762 19.8147 18.2774 19.8628C16.2553 20.351 14.8965 22.2835 15.1369 24.3295C15.2613 25.389 15.7777 26.3509 16.5866 27.0302C17.0318 27.4041 17.7507 27.7532 18.3259 27.8749C20.3973 28.3131 22.4442 27.1308 23.0802 25.1289C23.2949 24.4527 23.3426 23.9042 23.242 23.2639C22.9766 21.5753 21.7686 20.2633 20.1111 19.8633C19.8803 19.8076 19.5367 19.7795 19.1935 19.7795L19.1935 19.78ZM19.1149 20.042C19.488 20.037 19.8743 20.0741 20.1624 20.1503C21.5151 20.5082 22.606 21.6409 22.9392 23.0338C22.9729 23.175 23 23.57 23 23.9119C22.9998 24.4727 22.984 24.5818 22.8351 25.0257C22.7446 25.2964 22.6157 25.6126 22.5484 25.7282C22.0138 26.6469 21.2159 27.278 20.2253 27.5665C19.8039 27.6893 18.9529 27.7397 18.5736 27.6642C18.1011 27.5701 17.6491 27.3984 17.2461 27.1602C16.8602 26.932 16.2824 26.4066 16.0671 26.0879C15.8453 25.7597 15.5951 25.2051 15.4971 24.8255C15.3692 24.3291 15.3577 23.4877 15.4723 22.9936C15.7964 21.5949 16.9156 20.4688 18.3211 20.1274C18.5424 20.0736 18.8247 20.0454 19.1149 20.0418L19.1149 20.042ZM23.7861 20.1558L23.9021 20.2984C23.9657 20.3769 24.0169 20.4526 24.0159 20.4669C24.0152 20.4815 23.8535 20.603 23.6576 20.7377L23.3018 20.9827L23.1943 20.8457C23.1354 20.7703 23.0932 20.6903 23.1012 20.6679C23.1099 20.6456 23.2661 20.5212 23.4507 20.3916L23.7861 20.1558ZM14.6338 20.1926C14.6375 20.193 14.645 20.1937 14.648 20.1976C14.9916 20.4191 15.2972 20.6457 15.2972 20.6792C15.2972 20.702 15.2448 20.7795 15.1809 20.8514L15.0649 20.9826L14.7158 20.7236L14.3672 20.4646L14.4789 20.3127C14.5346 20.2371 14.5974 20.1896 14.6341 20.1929L14.6338 20.1926ZM31.4765 20.4854C31.464 20.4742 29.6188 20.7829 29.2089 20.8663C29.1852 20.8713 29.2596 21.2339 29.2877 21.2514C29.3216 21.2724 30.2437 21.1272 30.6076 21.0436C30.6735 21.0286 30.7193 21.0386 30.7096 21.0618C30.6983 21.087 30.4504 21.3218 30.1556 21.5836C29.8608 21.8453 29.5786 22.098 29.5283 22.1455C29.4558 22.214 29.444 22.2765 29.4712 22.4464C29.4916 22.5755 29.5328 22.6606 29.5744 22.6606C29.6695 22.6606 31.7595 22.2929 31.7829 22.2721C31.7942 22.2633 31.7867 22.1736 31.7669 22.0736C31.7257 21.8534 31.7304 21.8536 30.8825 22.0117C30.5386 22.0759 30.2574 22.1132 30.2574 22.0947C30.2574 22.076 30.5446 21.8093 30.8956 21.5022L31.5338 20.9436L31.514 20.7235C31.5027 20.6024 31.4859 20.4952 31.4756 20.4853L31.4765 20.4854ZM17.5674 20.5705V21.8138V23.0575H17.9544C18.3038 23.0575 18.3417 23.0676 18.3417 23.1587C18.3417 23.2465 18.2994 23.2617 18.0193 23.2751L17.6964 23.2902L17.6804 23.5192C17.6583 23.8307 17.5089 24.0316 16.6442 24.9157C16.2437 25.3251 15.9164 25.6747 15.917 25.6926C15.9172 25.7106 16.0681 25.833 16.2513 25.9647L16.5843 26.2042L16.9081 26.1281C17.4127 26.0095 18.3732 26.0611 18.8059 26.2301C18.9904 26.302 19.153 26.3634 19.1672 26.3664C19.1813 26.3701 19.3905 26.3022 19.6317 26.2174C20.0175 26.082 20.1388 26.0637 20.638 26.0651C20.9502 26.0658 21.3453 26.0964 21.5156 26.1324L21.825 26.198L22.1454 25.9615C22.3216 25.8316 22.4668 25.7079 22.4679 25.6864C22.4689 25.665 22.1423 25.3153 21.7416 24.9094C20.8502 24.0066 20.7155 23.8219 20.7155 23.5015V23.2646H20.38C20.0789 23.2646 20.0448 23.2545 20.0448 23.1609C20.0448 23.0666 20.0792 23.0577 20.4318 23.0577H20.8188V21.8139V20.5706H19.1933L17.5674 20.5705ZM7.44888 20.7224C7.40469 20.7224 7.34427 20.7372 7.26424 20.763C6.90497 20.8821 6.69345 21.3105 6.73643 21.8311C6.76476 22.174 6.95986 22.3978 7.26507 22.438C7.56751 22.4778 7.77707 22.3104 8.02892 21.8265C8.29928 21.3071 8.36529 21.2404 8.53563 21.3183C8.71436 21.4 8.78119 21.5955 8.71481 21.843C8.65926 22.0501 8.45782 22.2505 8.30546 22.2505C8.23768 22.2505 8.21071 22.3018 8.19586 22.4583C8.18463 22.5726 8.18714 22.6763 8.19958 22.6889C8.23178 22.7211 8.25614 22.7184 8.48626 22.6555C8.91246 22.5392 9.15536 22.1028 9.11394 21.5281C9.09622 21.2824 9.06475 21.1971 8.94657 21.0732C8.6785 20.7923 8.31084 20.7544 8.02718 20.9785C7.95452 21.0357 7.81297 21.2476 7.71269 21.449C7.61245 21.6505 7.49467 21.8555 7.45134 21.9048C7.26121 22.1211 7.0391 21.9086 7.10228 21.5696C7.13749 21.381 7.24508 21.2584 7.42181 21.2045C7.50558 21.1788 7.53604 21.1216 7.55136 20.962C7.56735 20.7929 7.54763 20.7225 7.44938 20.7225L7.44888 20.7224ZM17.7739 20.7275H19.1908H20.608L20.6222 21.6987C20.631 22.2329 20.6285 22.7225 20.6213 22.7866L20.6053 22.9031H19.1898H17.7742V21.8151L17.7739 20.7275ZM24.1807 20.7275C24.1984 20.7275 24.25 20.7845 24.2958 20.8545C24.378 20.9805 24.376 20.9836 24.05 21.2171C23.8692 21.3467 23.6979 21.4524 23.6693 21.4524C23.6406 21.4524 23.5811 21.3973 23.537 21.3296C23.4579 21.2087 23.4623 21.2025 23.8025 20.967C23.9928 20.8352 24.163 20.7274 24.1807 20.7274V20.7275ZM14.203 20.7312H14.2032C14.2292 20.7323 14.3895 20.8307 14.5763 20.9589C14.9198 21.1945 14.9354 21.2138 14.8667 21.3177C14.7555 21.4861 14.6783 21.4712 14.3259 21.2141C14.0035 20.9789 14.0012 20.9755 14.0932 20.8654C14.1445 20.8043 14.1923 20.7441 14.1998 20.732C14.2 20.7314 14.2007 20.7312 14.2035 20.7312L14.203 20.7312ZM17.9286 20.8836V21.8158V22.7485H19.1933H20.4575V21.8157V20.8835H19.1933L17.9286 20.8836ZM24.5268 21.2462C24.6023 21.2462 24.9381 21.6013 24.9761 21.7215C25.0055 21.8143 24.9724 21.8694 24.8125 22.005C24.7028 22.0974 24.525 22.2232 24.4175 22.2838L24.2219 22.394L24.0816 22.2417C24.004 22.158 23.9158 22.0059 23.8851 21.904L23.8291 21.7186L24.1562 21.4825C24.3361 21.3525 24.5029 21.2464 24.5267 21.2464L24.5268 21.2462ZM13.8683 21.247C13.8916 21.2466 14.0572 21.3512 14.2363 21.4794C14.5616 21.7124 14.5621 21.7129 14.5023 21.881C14.4692 21.9734 14.4131 22.101 14.3778 22.1645C14.2863 22.3291 14.1539 22.3887 14.0309 22.3206C13.7723 22.1776 13.3872 21.8565 13.3872 21.7841C13.3872 21.7013 13.7927 21.2486 13.8682 21.247H13.8683ZM19.1933 23.0591C19.3911 23.0591 19.4256 23.0745 19.4256 23.1627C19.4256 23.2509 19.3911 23.2664 19.1933 23.2664C18.9954 23.2664 18.961 23.2509 18.961 23.1627C18.961 23.0744 18.9955 23.0591 19.1933 23.0591ZM19.1933 23.4217C20.4748 23.4217 20.509 23.4255 20.509 23.5254C20.509 23.6264 20.4749 23.629 19.1933 23.629C17.9117 23.629 17.8772 23.6253 17.8772 23.5254C17.8772 23.4244 17.9118 23.4217 19.1933 23.4217ZM17.7996 23.8382L19.1933 23.8384H20.5865L20.8188 24.1871C21.1126 24.6281 21.1077 24.6139 20.9651 24.6107C20.8729 24.6069 20.8128 24.5446 20.7092 24.3386L20.5744 24.0694H19.1942H17.8145L17.6782 24.3398C17.5724 24.5499 17.5146 24.6108 17.4198 24.612C17.2821 24.6129 17.2537 24.6808 17.6407 24.0834L17.7996 23.8382ZM21.3735 24.7751C21.4305 24.7838 22.0785 25.49 22.0531 25.5152C22.0406 25.5265 21.9036 25.5115 21.7475 25.4839C21.2917 25.3993 20.1855 25.4617 19.7674 25.5957C19.5725 25.6581 19.3813 25.7218 19.3421 25.737C19.2852 25.7588 19.2704 25.6843 19.2704 25.3701V24.9761H20.3028C21.3006 24.9761 21.3348 24.9724 21.3348 24.8725C21.3348 24.8154 21.3525 24.7716 21.3735 24.7751L21.3735 24.7751ZM17.0273 24.8145C17.0452 24.8138 17.0513 24.8301 17.0513 24.8603V24.9763H18.0837H19.1157V25.3648C19.1157 25.5785 19.0979 25.7507 19.077 25.7473C19.0558 25.7436 18.9457 25.7074 18.832 25.6656C18.2704 25.4592 17.1881 25.3755 16.5869 25.4921C16.4591 25.5171 16.3443 25.5266 16.3314 25.5138C16.3189 25.5005 16.4751 25.3226 16.6796 25.1173C16.892 24.9041 16.9881 24.817 17.0274 24.8147L17.0273 24.8145ZM17.3806 25.6266C17.8189 25.6317 18.2712 25.6614 18.4939 25.7223C18.9105 25.8363 19.1157 25.941 19.1157 26.0396C19.1157 26.1324 19.0749 26.13 18.6663 26.0114C18.1761 25.869 17.6629 25.842 17.1032 25.9297C16.621 26.0053 16.6098 26.0046 16.4452 25.893C16.3531 25.8305 16.2777 25.7632 16.2775 25.7437C16.2768 25.6626 16.8172 25.6221 17.3807 25.6267L17.3806 25.6266ZM20.8959 25.6276C21.6136 25.6226 22.1087 25.6716 22.1087 25.7461C22.1087 25.7674 22.0407 25.8357 21.9575 25.8976C21.8072 26.009 21.8012 26.0094 21.2737 25.929C20.6706 25.8371 20.2403 25.8604 19.6849 26.0149C19.2463 26.137 19.2592 26.1365 19.2797 26.0249C19.2922 25.9625 19.4333 25.8872 19.735 25.7833C20.1339 25.646 20.239 25.632 20.896 25.628L20.8959 25.6276ZM15.9743 26.8112L15.6674 26.9475C15.4451 27.0506 14.9476 27.2779 14.4348 27.5095C13.9729 27.7182 13.7231 27.8317 13.5614 27.9251C13.4805 27.9717 13.4134 28.003 13.34 28.1113C13.3035 28.1653 13.2724 28.2516 13.2743 28.3318C13.278 28.412 13.3027 28.4706 13.3214 28.5057C13.3601 28.5785 13.3782 28.5921 13.4106 28.631C13.4428 28.6698 13.4818 28.714 13.527 28.7639C13.6171 28.8637 13.7307 28.9845 13.85 29.1054C14.9919 30.2632 16.3757 30.9911 17.9765 31.2767C18.6209 31.3917 20.1266 31.3637 20.7554 31.2196C22.2046 30.8875 23.4607 30.188 24.5139 29.127C24.6687 28.971 24.8089 28.8249 24.9131 28.7123C24.9652 28.656 25.0081 28.6085 25.0418 28.5687C25.0578 28.5488 25.0726 28.5318 25.0881 28.5107C25.0944 28.5007 25.1041 28.4895 25.1151 28.4696C25.1276 28.4497 25.161 28.4521 25.161 28.3029C25.161 28.1286 25.0951 28.1057 25.0734 28.0824C25.0516 28.0592 25.0393 28.0502 25.0287 28.0422C25.0079 28.0264 24.9955 28.0188 24.9815 28.0103C24.9539 27.9934 24.9247 27.9777 24.8889 27.9587C24.817 27.9207 24.7196 27.8721 24.5997 27.814C24.3598 27.6976 24.0322 27.5443 23.6718 27.3807C23.3137 27.2181 22.9858 27.0687 22.7465 26.9592C22.734 26.9542 22.7288 26.9504 22.7168 26.9459L22.4103 26.8168C22.2937 26.9496 22.2088 27.0589 22.2186 27.0656C22.2298 27.0732 22.8243 27.345 23.541 27.6704C24.2577 27.9958 24.8444 28.2806 24.8444 28.303C24.8444 28.3253 24.5948 28.5953 24.2896 28.9027C23.2757 29.9241 22.0794 30.5903 20.6849 30.9098C20.1915 31.0228 18.5501 31.0564 18.0321 30.964C16.491 30.6891 15.1742 29.996 14.075 28.8816C13.8429 28.6462 13.6294 28.4097 13.6008 28.356C13.5536 28.2674 13.6431 28.2158 14.5649 27.7995C15.1237 27.5471 15.7291 27.2709 15.9105 27.1859L16.2405 27.0314L16.1066 26.9337C16.0666 26.9046 16.0224 26.8626 15.9745 26.8114L15.9743 26.8112ZM17.1264 28.451V29.0914H17.2874C17.513 29.0914 17.6959 29.1796 17.6959 29.2877C17.6959 29.396 17.513 29.4836 17.2874 29.4836H17.1264V30.1239H21.2833V28.4515L17.1264 28.451ZM7.12723 30.4442C7.12223 30.4444 7.11851 30.4451 7.11601 30.4479C7.08418 30.4799 7.10478 30.5893 7.17718 30.7552C7.23797 30.8969 7.32352 31.1919 7.36771 31.4111C7.4119 31.6302 7.51476 31.946 7.59661 32.1127C7.67838 32.2794 7.73853 32.4231 7.72986 32.4318C7.69141 32.4704 6.41515 32.5386 6.15747 32.5155C5.92244 32.4946 5.86568 32.5055 5.83878 32.5757C5.81206 32.6456 5.9996 32.7553 6.86484 33.1753C7.44717 33.458 8.22272 33.8172 8.58772 33.9734C8.95271 34.1296 9.2714 34.2757 9.29635 34.2984C9.32219 34.322 9.28386 34.499 9.20522 34.7102C9.13007 34.9138 9.08663 35.0972 9.10873 35.1177C9.21759 35.2186 11.3408 35.7561 12.6202 36.0068C14.3204 36.34 16.115 36.5429 18.0317 36.6183C20.4265 36.7125 23.3146 36.4907 25.6635 36.0322C27.0734 35.7569 29.1932 35.2251 29.3023 35.1194C29.3244 35.0979 29.2823 34.9127 29.2088 34.7076C29.1351 34.5026 29.094 34.3178 29.1173 34.2971C29.1408 34.2765 29.39 34.1633 29.6708 34.0458C30.6504 33.6357 32.5803 32.6774 32.5803 32.6011C32.5803 32.5413 32.4717 32.5259 32.0159 32.5212C31.347 32.5162 30.6544 32.4551 30.6762 32.4066C30.6849 32.3875 30.754 32.2455 30.8301 32.0909C30.9063 31.9362 31.0153 31.5931 31.0721 31.3283C31.129 31.0635 31.22 30.771 31.2744 30.6783C31.4799 30.3286 31.323 30.3677 30.0073 30.994C28.3351 31.7899 27.3854 32.1591 26.5164 32.3511C26.3536 32.387 26.2108 32.4316 26.1994 32.4502C26.1869 32.4689 26.2119 32.5958 26.2529 32.7321C26.2938 32.8684 26.3216 32.9854 26.3146 32.9923C26.2483 33.0574 24.6964 33.3566 23.698 33.4968C19.9753 34.0195 16.026 33.8831 12.5624 33.1121L12.0952 33.0084L12.1643 32.7465C12.2368 32.4712 12.2258 32.3995 12.1112 32.3995C11.9698 32.3995 10.7848 32.0344 10.2564 31.8282C9.95632 31.7112 9.13819 31.3414 8.43825 31.0068C7.6698 30.6395 7.20811 30.4418 7.12722 30.4448L7.12723 30.4442ZM7.38269 30.7074C7.40692 30.7076 7.92876 30.9463 8.54281 31.2381C9.82071 31.8454 10.5009 32.1204 11.3107 32.3565C11.6241 32.4479 11.8802 32.5408 11.8802 32.5631C11.8802 32.6319 11.7222 32.6096 11.089 32.45C10.7531 32.3653 10.4198 32.296 10.3483 32.296C10.0955 32.296 10.0201 32.4142 9.7084 33.2922C9.54261 33.7591 9.39466 34.1399 9.37998 34.1385C9.27038 34.1285 6.30222 32.7515 6.3326 32.7251C6.33633 32.7201 6.66332 32.691 7.0564 32.6591C7.44948 32.6272 7.84708 32.5875 7.93997 32.5706C8.10892 32.5399 8.10892 32.5397 8.01038 32.4309C7.77846 32.1744 7.64286 31.8865 7.54538 31.4449C7.48858 31.1882 7.4192 30.9172 7.39108 30.8427C7.36299 30.7684 7.35888 30.7074 7.38236 30.7073L7.38269 30.7074ZM31.0203 30.7074C31.0784 30.7074 30.7455 31.9636 30.6452 32.1221C30.5933 32.2038 30.4948 32.3312 30.4264 32.4052L30.3019 32.5397L30.4714 32.5702C30.5645 32.5872 30.9623 32.6272 31.3554 32.6591C31.7485 32.6909 32.0746 32.7212 32.0804 32.7264C32.0964 32.7397 30.2585 33.6153 29.7219 33.8495C29.0732 34.1326 29.0402 34.1433 29.0065 34.0886C28.9905 34.0619 28.8524 33.691 28.7005 33.2642C28.5485 32.8374 28.3856 32.4449 28.3379 32.392C28.2188 32.2599 28.0349 32.2706 27.3224 32.4501C26.6891 32.6095 26.5312 32.6319 26.5312 32.5631C26.5312 32.5409 26.7877 32.4479 27.1011 32.3566C27.911 32.1204 28.5907 31.8454 29.8686 31.2381C30.4828 30.9462 31.0012 30.7075 31.0203 30.7075L31.0203 30.7074ZM10.3302 32.4543C10.4334 32.4581 10.6492 32.5046 11.0641 32.6079C11.4124 32.6948 11.7614 32.7566 11.8397 32.745C11.9871 32.7233 12.0041 32.744 11.9515 32.8813C11.9338 32.9258 11.8943 32.961 11.8621 32.9587C11.6919 32.9475 10.2467 32.5322 10.2467 32.4945C10.2467 32.4669 10.2681 32.4525 10.3301 32.4543L10.3302 32.4543ZM28.0838 32.4543C28.1446 32.4534 28.1647 32.4656 28.1647 32.4928C28.1647 32.5164 27.8605 32.6185 27.4885 32.7192C26.5321 32.9781 26.4992 32.9832 26.4612 32.8838C26.4075 32.7429 26.4239 32.7232 26.575 32.7454C26.6551 32.7567 27.0061 32.6953 27.3549 32.6083C27.7699 32.5046 27.9826 32.4575 28.0838 32.4542L28.0838 32.4543ZM28.2663 32.6634C28.3209 32.6546 28.3633 32.7923 28.7574 33.9071C28.966 34.4971 29.1192 34.995 29.0976 35.0137C29 35.0984 27.0647 35.5897 25.9954 35.8008C24.4852 36.099 23.4362 36.2436 21.8857 36.3674C18.4314 36.6433 14.8548 36.3787 11.4974 35.5998C10.5806 35.387 9.36742 35.0637 9.31801 35.0188C9.29081 34.9942 10.055 32.7275 10.1084 32.674C10.1134 32.6689 10.352 32.7282 10.6358 32.808C12.1394 33.2318 14.3288 33.6472 15.8875 33.8042C19.8232 34.2007 23.519 33.9149 27.365 32.9168C27.791 32.8063 28.1766 32.7007 28.2221 32.6823C28.2403 32.6761 28.2538 32.6654 28.2665 32.6632L28.2663 32.6634ZM11.1724 33.723C11.1612 33.7228 11.1496 33.728 11.134 33.7453C11.1163 33.7626 11.0612 33.9566 11.0101 34.1765C10.959 34.3964 10.9027 34.6141 10.8848 34.6602C10.8602 34.7245 10.8973 34.7563 11.0476 34.7961C11.1547 34.8245 11.2845 34.8503 11.3359 34.8532C11.4874 34.862 11.4029 34.7388 11.2261 34.6928C11.0382 34.6439 11.0367 34.6327 11.1464 34.1448C11.2076 33.8733 11.2157 33.7246 11.1726 33.7229L11.1724 33.723ZM27.2205 33.7318C27.1665 33.7318 27.1631 33.7711 27.2028 33.9171C27.2608 34.1283 27.2347 34.1672 27.0046 34.2104C26.848 34.2398 26.8378 34.2316 26.7858 34.0377C26.7349 33.848 26.6324 33.7546 26.6333 33.8985C26.6336 33.9912 26.8331 34.8107 26.8694 34.8696C26.9404 34.9848 26.9837 34.8173 26.9293 34.639C26.8625 34.4204 26.8915 34.3729 27.124 34.3238C27.2783 34.2912 27.2852 34.2974 27.342 34.5235C27.3742 34.6517 27.4231 34.7567 27.4509 34.7567C27.521 34.7567 27.5158 34.7032 27.3948 34.1866C27.3264 33.8947 27.264 33.7317 27.2204 33.7317L27.2205 33.7318ZM26.2775 33.9307C26.2053 33.9206 26.2615 34.331 26.4111 34.8722C26.4409 34.9801 26.5313 34.9918 26.5313 34.8878C26.5313 34.7831 26.3375 33.981 26.3041 33.9474C26.2928 33.9374 26.285 33.9314 26.2775 33.9305L26.2775 33.9307ZM12.158 33.9625C12.074 33.9625 11.5644 34.8701 11.618 34.924C11.6502 34.9562 11.6968 34.9189 11.75 34.8139C11.8402 34.639 11.8628 34.6308 12.0557 34.7043C12.1564 34.7428 12.1868 34.7899 12.1868 34.9091C12.1868 35.0159 12.2118 35.0644 12.2668 35.0644C12.3361 35.0644 12.342 35.007 12.3103 34.6421C12.2679 34.1567 12.2245 33.9625 12.1581 33.9625L12.158 33.9625ZM25.9693 34.0361C25.9276 34.037 25.9024 34.1591 25.8758 34.4584L25.8422 34.8337L25.7127 34.5007C25.5459 34.0723 25.4107 34.0202 25.4032 34.3813C25.3995 34.5173 25.3808 34.6862 25.3594 34.7566L25.3207 34.8848L25.2613 34.7312C25.2285 34.6465 25.1757 34.5081 25.1438 34.4236C25.0748 34.2401 25.0136 34.1625 24.971 34.2052C24.9533 34.2224 25.0279 34.4571 25.1359 34.7266C25.2439 34.996 25.3578 35.2166 25.3892 35.217C25.4238 35.2172 25.4619 35.0508 25.4852 34.7951L25.5239 34.3724L25.6943 34.7439C25.7879 34.9482 25.8859 35.1154 25.9118 35.1154C25.9648 35.1154 26.05 34.1022 26.001 34.0533C25.9885 34.042 25.9791 34.0355 25.9693 34.0359L25.9693 34.0361ZM12.7958 34.0864C12.7896 34.0871 12.7817 34.0914 12.7751 34.0965C12.7143 34.1575 12.5541 35.0921 12.5967 35.1358C12.6514 35.1918 12.6704 35.1408 12.7486 34.7431C12.7803 34.581 12.8144 34.4485 12.8238 34.4485C12.8351 34.4485 12.9034 34.6338 12.9785 34.8607C13.0569 35.0966 13.14 35.2652 13.1728 35.2543C13.2246 35.2369 13.4036 34.5009 13.4093 34.2818C13.4143 34.0765 13.3124 34.2137 13.2568 34.4866C13.1615 34.9534 13.1493 34.9569 13.019 34.5509C12.9139 34.2235 12.8462 34.0806 12.7956 34.0854L12.7958 34.0864ZM12.1201 34.2266L12.1563 34.3713C12.1967 34.5332 12.1525 34.5951 12.0206 34.5646C11.9067 34.5386 11.908 34.4897 12.0243 34.3437L12.1201 34.2266ZM13.6878 34.2885C13.6363 34.2894 13.6162 34.3032 13.6162 34.3257C13.6162 34.3594 13.6732 34.4015 13.7434 34.419C13.8889 34.4558 13.8887 34.4502 13.8 34.948C13.7635 35.1519 13.7453 35.3309 13.76 35.3454C13.8313 35.4169 13.8637 35.3354 13.929 34.9231C13.9994 34.479 14.0015 34.4751 14.1398 34.4914C14.2336 34.5027 14.2797 34.4839 14.2797 34.436C14.2797 34.3866 14.1755 34.3483 13.948 34.3141C13.8223 34.2952 13.7394 34.2865 13.6879 34.2883L13.6878 34.2885ZM24.6545 34.296C24.6012 34.296 24.5895 34.3317 24.6122 34.4229C24.6299 34.4927 24.6581 34.686 24.6755 34.8528C24.7037 35.1244 24.6958 35.1624 24.6018 35.213C24.3829 35.3306 24.2905 35.1853 24.206 34.5905C24.1741 34.3661 24.1211 34.2904 24.0635 34.3856C24.0184 34.4596 24.1852 35.1869 24.2684 35.279C24.3921 35.4163 24.6721 35.402 24.7692 35.2531C24.8358 35.1513 24.8382 35.073 24.7878 34.7148C24.7448 34.4099 24.7085 34.2959 24.6547 34.2959L24.6545 34.296ZM14.5861 34.442C14.5774 34.443 14.5684 34.4495 14.5587 34.4602C14.5446 34.4752 14.5092 34.6345 14.4818 34.8144C14.4546 34.9942 14.4199 35.2166 14.4045 35.3082C14.3844 35.4288 14.3958 35.4745 14.4468 35.4745C14.497 35.4745 14.5351 35.3345 14.5808 34.9837C14.6281 34.6203 14.6328 34.4525 14.5933 34.4424C14.5896 34.4417 14.5896 34.4417 14.587 34.4422L14.5861 34.442ZM23.7119 34.4495C23.6758 34.4495 23.6693 34.5727 23.692 34.8202C23.711 35.024 23.708 35.1677 23.6833 35.1402C23.66 35.1126 23.5419 34.9578 23.4207 34.7957C23.2995 34.6336 23.1771 34.5012 23.1488 34.5012C23.0894 34.5012 23.1438 35.2644 23.2154 35.4567C23.2983 35.6756 23.3241 35.5821 23.2876 35.1926C23.2677 34.9812 23.2618 34.8084 23.2751 34.8084C23.2876 34.8084 23.3996 34.9582 23.5234 35.1414C23.8173 35.5765 23.8977 35.5799 23.8543 35.1547C23.7978 34.6002 23.7673 34.4497 23.7119 34.4497L23.7119 34.4495ZM14.9563 34.5012L14.9217 34.8211C14.9025 34.9973 14.8731 35.2309 14.8565 35.3403C14.8326 35.497 14.8405 35.5346 14.8973 35.516C14.9367 35.5027 14.9802 35.4131 14.9942 35.3167C15.0159 35.1674 15.0375 35.1439 15.14 35.1584C15.3481 35.1877 15.4896 35.1227 15.5536 34.9675C15.6616 34.7059 15.4766 34.5012 15.132 34.5012H14.9563ZM22.7436 34.5524C22.6956 34.5524 22.7295 35.3342 22.7865 35.5389C22.799 35.5882 22.836 35.6285 22.8658 35.6285C22.9023 35.6285 22.9085 35.5064 22.8857 35.2569C22.8371 34.7317 22.801 34.5523 22.7436 34.5523L22.7436 34.5524ZM21.9351 34.6511C21.9263 34.6513 21.9191 34.6561 21.9104 34.6643C21.8927 34.6819 21.8945 34.9173 21.9142 35.1878L21.9499 35.68H22.143C22.2492 35.68 22.3721 35.6652 22.4165 35.6487C22.5638 35.592 22.5003 35.5258 22.2985 35.5258C22.0638 35.5258 22.0382 35.4815 22.0371 35.0735C22.0364 34.8284 21.9895 34.6481 21.9338 34.6511L21.9351 34.6511ZM15.1856 34.6561C15.3829 34.6568 15.4657 34.7237 15.4457 34.866C15.4315 34.9665 15.3939 34.9908 15.2366 35.0039C15.0483 35.0194 15.0452 35.0172 15.0452 34.8376C15.0452 34.6725 15.0577 34.6553 15.1855 34.656L15.1856 34.6561ZM16.5396 34.6611C16.5346 34.6604 16.5271 34.6612 16.5201 34.6648C16.4692 34.6818 16.4406 34.8247 16.4194 35.1709C16.4034 35.4363 16.3989 35.6709 16.4082 35.6923C16.4365 35.7471 16.9326 35.74 16.9326 35.6848C16.9326 35.6251 16.8036 35.5769 16.6438 35.5769H16.5166L16.5531 35.1088C16.5795 34.7694 16.5781 34.6687 16.5371 34.662L16.5396 34.6611ZM17.2917 34.7047C17.2636 34.7047 17.2405 34.8391 17.2405 35.0051C17.2405 35.1703 17.2263 35.4122 17.2077 35.543C17.1805 35.7422 17.1891 35.7808 17.2591 35.7808C17.331 35.7808 17.3425 35.707 17.3425 35.243C17.3425 34.9184 17.3224 34.7047 17.2913 34.7047H17.2917ZM20.8808 34.7084C20.8161 34.7091 20.7231 34.7197 20.5912 34.7382C20.456 34.7569 20.3546 34.7975 20.3546 34.8335C20.3546 34.8717 20.4013 34.8874 20.4746 34.8733C20.5762 34.8538 20.5999 34.8771 20.6277 35.0151C20.6458 35.1057 20.6605 35.3154 20.6605 35.481C20.6605 35.7022 20.6795 35.7819 20.7309 35.7819C20.7872 35.7819 20.7957 35.6904 20.7747 35.3206L20.7487 34.8594H20.8832C20.9689 34.8594 21.018 34.8317 21.018 34.7828C21.018 34.7297 20.9883 34.7067 20.8807 34.7089L20.8808 34.7084ZM17.7452 34.7565C17.657 34.7565 17.6487 34.8008 17.6487 35.269C17.6487 35.5765 17.6691 35.7815 17.6999 35.7815C17.728 35.7815 17.7514 35.6678 17.7514 35.5293C17.7514 35.0948 17.8132 35.0519 17.9044 35.423C17.9534 35.6226 18.013 35.7557 18.0532 35.7557C18.0908 35.7557 18.1686 35.6086 18.2294 35.4226L18.3383 35.0896L18.3543 35.4611C18.3776 36.0373 18.4669 35.9054 18.4669 35.2948C18.4669 34.8643 18.4528 34.7565 18.3942 34.7565C18.348 34.7565 18.28 34.8973 18.2075 35.1429C18.1447 35.3555 18.0774 35.5114 18.0583 35.489C18.0391 35.4668 17.9828 35.2925 17.9332 35.1023C17.8619 34.8293 17.8225 34.7565 17.7464 34.7565L17.7452 34.7565ZM18.7717 34.7565V35.2986C18.7717 35.7096 18.7877 35.836 18.8359 35.82C18.8709 35.8087 18.9066 35.7027 18.9152 35.5851C18.9293 35.3834 18.94 35.3714 19.0902 35.3714C19.2872 35.3714 19.4358 35.2434 19.4358 35.0731C19.4358 34.8605 19.299 34.7565 19.0193 34.7565H18.7717ZM19.8973 34.7824C19.8357 34.7824 19.5414 35.5918 19.5385 35.7688C19.5376 35.8903 19.6299 35.8324 19.6831 35.6792C19.7127 35.5948 19.7705 35.5252 19.8118 35.5252C19.8532 35.5252 19.9232 35.5119 19.9678 35.4943C20.0264 35.4717 20.0703 35.5143 20.1258 35.6479C20.2002 35.8266 20.3064 35.9001 20.3008 35.7688C20.2945 35.6006 19.959 34.7823 19.8974 34.7823L19.8973 34.7824ZM19.1039 34.9102C19.2669 34.9102 19.2822 34.9235 19.2822 35.0587C19.2822 35.1465 19.2497 35.2193 19.2017 35.2377C19.0009 35.3151 18.9252 35.2744 18.9252 35.0896C18.9252 34.9188 18.9339 34.9102 19.1039 34.9102ZM19.8918 34.9837C19.9333 34.975 20.0434 35.2788 20.0129 35.3328C20.0004 35.354 19.9449 35.3713 19.8881 35.3713C19.7984 35.3713 19.7896 35.3499 19.8205 35.205C19.8401 35.1135 19.8687 35.0166 19.8844 34.99C19.8882 34.9863 19.8882 34.985 19.8907 34.985L19.8918 34.9837ZM15.6885 35.4738C15.64 35.4738 15.6186 35.5309 15.6219 35.6511C15.6256 35.7906 15.6413 35.8166 15.6935 35.773C15.7831 35.6983 15.7793 35.4738 15.6898 35.4738L15.6885 35.4738ZM21.2762 35.5767C21.1974 35.5767 21.1558 35.6838 21.2125 35.7409C21.2415 35.7699 21.252 35.8295 21.2354 35.8729C21.2155 35.9249 21.2241 35.9391 21.2651 35.9149C21.3361 35.8709 21.3458 35.5768 21.2776 35.5768L21.2762 35.5767ZM12.0176 36.8792C12.0034 36.8785 11.9947 36.8793 11.9922 36.883C11.9732 36.902 11.6307 38.6218 11.6432 38.6358C11.6469 38.6408 11.7202 38.6525 11.8042 38.6616L11.9567 38.6782L12.0407 38.2428C12.0869 38.0032 12.1427 37.7148 12.1643 37.6021L12.2036 37.3972L12.2402 37.5508C12.2603 37.6353 12.2795 37.8806 12.2827 38.0955C12.2915 38.6941 12.3221 38.7921 12.5053 38.8191C12.6582 38.8417 12.6642 38.834 12.9429 38.2351C13.0982 37.9014 13.2339 37.6373 13.2447 37.6482C13.256 37.6582 13.2159 37.9267 13.1565 38.2432C13.0971 38.5597 13.0604 38.8505 13.0751 38.8894C13.0892 38.9282 13.1573 38.96 13.2251 38.96C13.3439 38.96 13.3547 38.9288 13.5131 38.1095C13.6036 37.6417 13.6582 37.2409 13.6342 37.2182C13.6102 37.1957 13.4922 37.1612 13.3724 37.1417L13.1549 37.1058L12.8889 37.6615C12.6413 38.1794 12.621 38.2068 12.5896 38.0635C12.5709 37.9789 12.5531 37.7831 12.5496 37.628C12.5458 37.473 12.5288 37.2608 12.5118 37.1566C12.4828 36.9801 12.4646 36.9637 12.2449 36.9167C12.1478 36.8959 12.0597 36.8822 12.0177 36.8808L12.0176 36.8792ZM25.9107 36.9711C25.7359 36.9701 25.5418 37.0117 25.38 37.0959C24.7709 37.4132 24.8341 38.4641 25.4798 38.7585C25.5949 38.811 25.7367 38.8544 25.7948 38.8549C25.9995 38.8587 26.4056 38.7043 26.5772 38.5604L26.7509 38.4148L26.6863 38.0716C26.6138 37.6868 26.6247 37.6925 26.1569 37.7868C25.8744 37.8438 25.8331 37.8857 25.8964 38.0513C25.9185 38.1087 25.9665 38.1171 26.1038 38.086C26.2597 38.0507 26.288 38.0599 26.3247 38.1562C26.3802 38.3019 26.267 38.4291 26.0152 38.5049C25.737 38.5886 25.5252 38.49 25.4027 38.2192C25.232 37.8418 25.2955 37.4822 25.5567 37.3466C25.7627 37.2396 25.93 37.2469 26.0849 37.3689C26.1936 37.4546 26.2388 37.4622 26.3719 37.4154C26.5084 37.3678 26.5227 37.3465 26.4765 37.2597C26.447 37.2043 26.3497 37.1129 26.2603 37.0565C26.1712 37.0004 26.0468 36.9722 25.9108 36.9708L25.9107 36.9711ZM23.5197 37.3189C23.3947 37.3189 23.3663 37.34 23.3666 37.4341C23.3673 37.5382 23.4288 37.9922 23.4923 38.3566C23.5048 38.4342 23.501 38.4973 23.4798 38.497C23.4594 38.4968 23.2588 38.2671 23.0342 37.9867C22.6789 37.5432 22.6054 37.4766 22.4685 37.4746C22.3821 37.4739 22.3002 37.4834 22.2868 37.4969C22.2743 37.5102 22.3146 37.8965 22.3787 38.3551C22.4426 38.8137 22.4956 39.2066 22.4968 39.2277C22.4975 39.2489 22.5673 39.2662 22.6514 39.2662C22.8323 39.2662 22.8345 39.2492 22.7354 38.587C22.6985 38.3404 22.6847 38.1384 22.705 38.1384C22.7253 38.1384 22.9275 38.3665 23.1544 38.645C23.5549 39.1368 23.5716 39.1503 23.7344 39.1168C23.9297 39.0766 23.9277 39.1348 23.7706 38.0462C23.7164 37.6712 23.6724 37.3541 23.6724 37.3416C23.6724 37.3303 23.6037 37.3188 23.5193 37.3188L23.5197 37.3189ZM15.5367 37.4218C15.3835 37.422 15.3588 37.4555 14.9234 38.2432C14.6738 38.6947 14.4787 39.0727 14.4896 39.0832C14.5009 39.0932 14.5779 39.1105 14.6621 39.1204C14.7941 39.1358 14.8288 39.1117 14.9176 38.944C15.0158 38.7581 15.0283 38.7515 15.224 38.781C15.7747 38.864 15.7461 38.8488 15.807 39.0916C15.8608 39.3055 15.8734 39.3176 16.0452 39.3176C16.1944 39.3176 16.2216 39.3016 16.1991 39.2279C16.1832 39.1785 16.088 38.7807 15.9854 38.3439C15.8829 37.907 15.7757 37.5205 15.7477 37.4852C15.7198 37.45 15.6247 37.4217 15.5369 37.4218L15.5367 37.4218ZM20.3408 37.5746C20.2273 37.5736 20.2011 37.6847 19.8682 38.6385L19.5954 39.42H19.772C19.9185 39.42 19.9571 39.3961 19.9984 39.2792C20.0974 38.9988 20.1187 38.9854 20.4912 38.9681L20.8465 38.9516L20.9283 39.1602C21.0027 39.3502 21.0263 39.3689 21.1926 39.3689C21.2932 39.3689 21.3752 39.3588 21.3752 39.3461C21.3751 39.3348 21.206 38.9358 20.9995 38.462L20.6244 37.6009L20.438 37.5848C20.3976 37.5811 20.3668 37.5748 20.3407 37.5748L20.3408 37.5746ZM17.3937 37.5753V37.8487C17.3937 37.9992 17.3795 38.4015 17.3605 38.7424L17.3273 39.3624L17.5777 39.3818C17.7152 39.3918 18.0059 39.4054 18.2235 39.4106L18.6189 39.4194V39.2658V39.1122H18.1548H17.6903L17.7273 38.3433L17.7644 37.5748H17.5791L17.3937 37.5753ZM15.5089 37.8825C15.5403 37.8824 15.6581 38.3516 15.6581 38.4758C15.6581 38.516 15.618 38.5451 15.569 38.541C15.3482 38.5219 15.1988 38.4878 15.1988 38.4564C15.1988 38.3985 15.4777 37.8827 15.5091 37.8826L15.5089 37.8825ZM20.4444 38.067C20.4482 38.0663 20.4494 38.0671 20.4532 38.0707C20.5231 38.1526 20.7022 38.6442 20.6728 38.6738C20.6568 38.6901 20.5411 38.7036 20.4165 38.7036C20.2566 38.7036 20.1967 38.6844 20.2133 38.6393C20.2258 38.6041 20.2775 38.4521 20.3267 38.3016C20.3699 38.17 20.4188 38.0742 20.4439 38.068L20.4444 38.067Z" fill="white"/>
<path fill-rule="evenodd" clip-rule="evenodd" d="M97.2225 8.14612L95.8213 8.14651V9.56487V21.9052V23.3236H97.2229C97.247 23.3232 97.271 23.3222 97.2951 23.3206H97.2958C97.3145 23.3194 97.3331 23.3179 97.3517 23.316C97.3614 23.3143 97.3711 23.3135 97.3808 23.3128C97.3881 23.3122 97.3953 23.3117 97.4026 23.3107H97.4063C98.0361 23.2277 98.5321 22.7249 98.6122 22.0869L98.6126 22.0793C98.6137 22.0719 98.6146 22.0645 98.6154 22.057C98.6163 22.0486 98.6171 22.0401 98.6179 22.0316L98.6179 22.0313C98.6191 22.0185 98.6201 22.0057 98.6209 21.9929C98.6213 21.9886 98.6215 21.9843 98.6217 21.9801C98.6218 21.9758 98.622 21.9716 98.6224 21.9673C98.6232 21.95 98.6237 21.9327 98.6239 21.9154V21.9049V17.7602V9.56488C98.6239 8.7791 97.999 8.14613 97.2227 8.14613L97.2225 8.14612ZM62.5281 12.1972V13.6156V17.7606C62.5281 20.8162 65.0051 23.3236 68.0238 23.3236C69.6449 23.3236 71.1097 22.6005 72.1186 21.4576C73.1276 22.6004 74.5921 23.3236 76.2131 23.3236C79.2318 23.3236 81.7088 20.8162 81.7088 17.7606V13.6156C81.7088 12.8298 81.0839 12.1972 80.3076 12.1972H78.9064V13.6156V17.7606C78.9064 19.2832 77.7173 20.4869 76.2131 20.4869C74.709 20.4869 73.5198 19.2832 73.5198 17.7606V13.6156C73.5198 12.8298 72.8949 12.1972 72.1186 12.1972H70.7174V13.6156V17.7606C70.7174 19.2832 69.5279 20.4869 68.0238 20.4869C66.5196 20.4869 65.3305 19.2832 65.3305 17.7606V13.6156C65.3305 12.8298 64.7055 12.1972 63.9293 12.1972H62.5281ZM88.2089 12.1972C85.1902 12.1972 82.7128 14.7046 82.7128 17.7602C82.7128 20.8158 85.1902 23.3236 88.2089 23.3236C89.2419 23.3236 90.211 23.0298 91.0396 22.5211C91.2653 22.9968 91.7454 23.3236 92.3034 23.3236H93.7042V21.9052V17.7712V17.7602V17.7492V13.6155V12.1976H92.3034C91.7454 12.1976 91.2653 12.5244 91.0396 13.0001C90.211 12.4913 89.2415 12.1976 88.2085 12.1976L88.2089 12.1972ZM106.571 12.1972V13.6156V17.7606C106.571 20.8162 109.048 23.3236 112.067 23.3236C115.085 23.3236 117.562 20.8162 117.562 17.7606V13.6156C117.562 12.8298 116.938 12.1972 116.161 12.1972H114.76V13.6156V17.7606C114.76 19.2832 113.571 20.4869 112.067 20.4869C110.563 20.4869 109.374 19.2832 109.374 17.7606V13.6156C109.374 12.8298 108.749 12.1972 107.972 12.1972H106.571ZM104.12 12.1976C101.101 12.1976 98.6243 14.7056 98.6241 17.761C98.6243 20.8164 101.101 23.3236 104.12 23.3236H105.521V21.9052C105.521 21.5291 105.373 21.1685 105.11 20.9026C104.848 20.6367 104.491 20.4873 104.12 20.4873C102.616 20.4873 101.426 19.2832 101.426 17.7606C101.426 16.2381 102.616 15.0343 104.12 15.0343C104.304 15.0343 104.486 14.9976 104.656 14.9264C104.826 14.8551 104.98 14.7506 105.111 14.6189C105.241 14.4872 105.344 14.3308 105.414 14.1588C105.485 13.9867 105.521 13.8022 105.521 13.616V12.1976H104.12ZM88.2089 15.0339C89.713 15.0339 90.9022 16.2376 90.9022 17.7602C90.9022 19.2828 89.713 20.4869 88.2089 20.4869C86.7047 20.4869 85.5152 19.2828 85.5152 17.7602C85.5152 16.2376 86.7047 15.0339 88.2089 15.0339ZM90.7896 25.1263V26.6634C90.7896 26.8652 90.8288 27.0651 90.9051 27.2516C90.9815 27.4381 91.0933 27.6075 91.2343 27.7502C91.3753 27.893 91.5427 28.0062 91.7269 28.0834C91.9112 28.1607 92.1086 28.2004 92.308 28.2004C92.7107 28.2004 93.097 28.0385 93.3817 27.7502C93.6665 27.462 93.8265 27.071 93.8265 26.6634C93.8265 26.2557 93.6665 25.8648 93.3817 25.5765C93.097 25.2883 92.7107 25.1263 92.308 25.1263H90.7896ZM95.8217 25.1263V26.5443V38.8807V38.8845V40.3029H97.2229C97.2416 40.3029 97.2602 40.3019 97.2787 40.3009C97.2923 40.3001 97.306 40.2994 97.3195 40.2991H97.3366C98.023 40.2437 98.5666 39.6924 98.6194 38.9971L98.6201 38.9873C98.6224 38.9537 98.6239 38.92 98.6239 38.8859V34.7412C98.6245 37.7963 101.101 40.303 104.12 40.303H105.521V38.8851C105.521 38.6988 105.485 38.5143 105.414 38.3422C105.344 38.17 105.241 38.0136 105.11 37.8819C104.98 37.7501 104.826 37.6456 104.656 37.5743C104.486 37.503 104.304 37.4663 104.12 37.4663C102.615 37.4663 101.426 36.2626 101.426 34.74H101.426C101.426 33.2175 102.615 32.0138 104.12 32.0138C104.304 32.0138 104.486 31.9771 104.656 31.9058C104.826 31.8345 104.98 31.73 105.11 31.5983C105.24 31.4666 105.344 31.3103 105.414 31.1382C105.485 30.9661 105.521 30.7817 105.521 30.5954V29.177H104.12C101.101 29.1771 98.6241 31.6846 98.6239 34.74V26.5455C98.6239 25.7597 97.9989 25.1271 97.2227 25.1271L95.8217 25.1263ZM77.7933 29.1766V30.595V34.74C77.7933 36.2626 76.6041 37.4667 75.1 37.4667C74.1358 37.4667 73.3019 36.9715 72.8268 36.2154V36.7801C72.8306 38.0312 73.4555 39.1955 74.4897 39.8806L75.1276 40.303C76.7376 40.2948 78.1917 39.5734 79.1949 38.437C80.2038 39.5799 81.6683 40.3034 83.2894 40.3034C86.308 40.3034 88.785 37.7957 88.785 34.74V30.595C88.785 29.8093 88.16 29.1767 87.3838 29.1766H85.9826V30.595V34.74C85.9826 36.2626 84.7935 37.4667 83.2894 37.4667C81.7852 37.4667 80.5957 36.2626 80.5957 34.74V30.595C80.5957 29.8093 79.9711 29.1767 79.1949 29.1766H77.7933ZM90.9068 29.1766V30.595V38.8851C90.9068 39.6708 91.5317 40.303 92.308 40.303H93.7092V38.8851V30.5954C93.7092 29.8096 93.0843 29.177 92.308 29.177L90.9068 29.1766ZM116.161 29.1766C115.603 29.1766 115.124 29.5036 114.898 29.9792C114.069 29.4704 113.1 29.177 112.067 29.177C109.048 29.177 106.571 31.6844 106.571 34.74C106.571 37.7957 109.048 40.303 112.067 40.303C113.1 40.303 114.069 40.0093 114.898 39.5005C115.124 39.9761 115.603 40.303 116.161 40.303H117.562V38.8847V34.74V30.595V29.1766H116.161ZM112.067 32.0134C113.571 32.0134 114.76 33.2175 114.76 34.74C114.76 36.2626 113.571 37.4663 112.067 37.4663C110.563 37.4663 109.373 36.2626 109.373 34.74C109.373 33.2175 110.563 32.0134 112.067 32.0134ZM122.508 12.9474V15.7283C122.508 16.3641 122.671 16.849 122.996 17.1825C123.321 17.5159 123.784 17.6824 124.386 17.6824C124.711 17.6824 124.996 17.6313 125.242 17.5291C125.492 17.4224 125.695 17.2779 125.849 17.0956C125.998 17.2779 126.198 17.4224 126.448 17.5291C126.703 17.6314 126.993 17.6824 127.318 17.6824C127.919 17.6824 128.38 17.5181 128.701 17.1891C129.026 16.8557 129.189 16.3686 129.189 15.7283V12.9474H128.339V15.702C128.339 16.5156 127.998 16.9223 127.318 16.9223C126.624 16.9223 126.276 16.5156 126.276 15.702V12.9474H125.42V15.702C125.42 16.5156 125.075 16.9223 124.386 16.9223C124.052 16.9223 123.797 16.8243 123.622 16.6287C123.45 16.4331 123.364 16.1244 123.364 15.702V12.9474H122.508ZM131.701 14.0144C131.358 14.0144 131.051 14.09 130.779 14.2412C130.511 14.3924 130.3 14.6058 130.146 14.8814C129.997 15.1526 129.922 15.4707 129.922 15.8352C129.922 16.1998 129.997 16.5197 130.146 16.7954C130.3 17.071 130.511 17.2844 130.779 17.4356C131.051 17.5867 131.358 17.6623 131.701 17.6623C131.943 17.6623 132.162 17.6203 132.36 17.5358C132.562 17.4513 132.731 17.3247 132.867 17.1557V17.6159H133.651V14.0545H132.828V14.488C132.687 14.3324 132.52 14.2147 132.327 14.1347C132.138 14.0547 131.929 14.0144 131.701 14.0144ZM136.664 14.0144C136.067 14.0144 135.65 14.2014 135.413 14.5749V14.0545H134.629V17.6159H135.452V15.8887C135.452 15.533 135.542 15.2615 135.722 15.0748C135.903 14.8836 136.153 14.7883 136.473 14.7883C136.53 14.7883 136.594 14.7951 136.664 14.8084V14.0144ZM143.673 14.0144C143.414 14.0144 143.181 14.0569 142.974 14.1414C142.768 14.2259 142.596 14.3502 142.46 14.5147V14.0545H141.676V17.6159H142.5V15.8152C142.5 15.4684 142.588 15.204 142.763 15.0217C142.939 14.835 143.179 14.7415 143.482 14.7415C143.75 14.7415 143.956 14.8216 144.101 14.9816C144.246 15.1372 144.318 15.3708 144.318 15.682V17.6159H145.142V15.5751C145.142 15.0594 145.008 14.6705 144.74 14.4082C144.472 14.1459 144.116 14.0144 143.673 14.0144ZM147.608 14.0144C147.274 14.0144 146.971 14.0856 146.699 14.2278C146.431 14.3701 146.218 14.5727 146.06 14.835C145.906 15.0929 145.829 15.3905 145.829 15.7283C145.829 16.0662 145.906 16.3664 146.06 16.6287C146.218 16.891 146.431 17.0955 146.699 17.2422C146.971 17.3845 147.274 17.4556 147.608 17.4556C147.85 17.4556 148.071 17.4158 148.273 17.3357C148.475 17.2557 148.647 17.138 148.787 16.9824V17.1691C148.787 17.5337 148.697 17.8048 148.517 17.9826C148.337 18.1605 148.054 18.2495 147.667 18.2495C147.426 18.2495 147.186 18.2092 146.949 18.1292C146.716 18.0536 146.523 17.9516 146.369 17.8227L146.001 18.4495C146.198 18.614 146.448 18.7384 146.752 18.8229C147.055 18.9118 147.375 18.9561 147.714 18.9561C148.979 18.9561 149.611 18.3293 149.611 17.0756V14.0545H148.827V14.5281C148.687 14.3547 148.511 14.2259 148.3 14.1414C148.093 14.0569 147.863 14.0144 147.608 14.0144ZM137.267 14.0545V16.0887C137.267 16.6089 137.4 17.0022 137.668 17.2689C137.941 17.5312 138.312 17.6623 138.782 17.6623C139.01 17.6623 139.223 17.6203 139.421 17.5358C139.618 17.4469 139.783 17.3225 139.915 17.1624V17.6159H140.699V14.0545H139.875V15.8553C139.875 16.2021 139.787 16.4687 139.612 16.6554C139.44 16.8377 139.208 16.929 138.914 16.929C138.65 16.929 138.446 16.8511 138.301 16.6955C138.16 16.5355 138.09 16.2952 138.09 15.9751V14.0545H137.267ZM131.793 14.7215C132.096 14.7215 132.347 14.8239 132.544 15.0284C132.742 15.2329 132.841 15.5018 132.841 15.8352C132.841 16.1687 132.742 16.4376 132.544 16.6421C132.347 16.8466 132.096 16.949 131.793 16.949C131.49 16.949 131.24 16.8466 131.042 16.6421C130.849 16.4376 130.753 16.1687 130.753 15.8352C130.753 15.5018 130.849 15.2329 131.042 15.0284C131.24 14.8239 131.49 14.7215 131.793 14.7215ZM147.733 14.7215C148.045 14.7215 148.3 14.8149 148.497 15.0017C148.699 15.1884 148.801 15.4305 148.801 15.7283C148.801 16.0307 148.699 16.2776 148.497 16.4688C148.3 16.6555 148.045 16.749 147.733 16.749C147.417 16.749 147.158 16.6555 146.956 16.4688C146.758 16.2776 146.659 16.0307 146.659 15.7283C146.659 15.4305 146.758 15.1884 146.956 15.0017C147.158 14.8149 147.417 14.7215 147.733 14.7215ZM130.436 20.2145V24.0491C130.436 24.4181 130.537 24.7048 130.739 24.9093C130.946 25.1094 131.231 25.2092 131.596 25.2092C131.771 25.2092 131.936 25.1805 132.09 25.1228L132.05 24.4558C131.963 24.5003 131.864 24.5222 131.754 24.5222C131.424 24.5222 131.26 24.3446 131.26 23.9889V20.2145L130.436 20.2145ZM136.897 20.2145V25.1624H137.721V24.2224L138.334 23.6356L139.553 25.1624H140.554L138.947 23.0952L140.416 21.6014H139.427L137.721 23.2021V20.2145H136.897ZM124.788 20.4279C124.472 20.4279 124.193 20.4878 123.951 20.6079C123.71 20.7235 123.518 20.89 123.378 21.1078V20.4943H122.548V25.1624H123.404V22.3815C123.404 21.9814 123.507 21.6839 123.714 21.4882C123.925 21.2882 124.204 21.188 124.551 21.188C124.858 21.188 125.099 21.2815 125.275 21.4682C125.455 21.6549 125.545 21.935 125.545 22.3084V25.1624H126.402V22.3815C126.402 21.977 126.503 21.6772 126.705 21.4815C126.911 21.2859 127.186 21.188 127.528 21.188C127.836 21.188 128.084 21.2837 128.273 21.4749C128.466 21.6616 128.563 21.9394 128.563 22.3084V25.1624H129.419V22.275C129.419 21.6793 129.268 21.2234 128.965 20.9078C128.662 20.5877 128.24 20.4279 127.7 20.4279C127.375 20.4279 127.078 20.4901 126.81 20.6146C126.547 20.7391 126.338 20.9145 126.184 21.1412C126.061 20.9145 125.879 20.7391 125.638 20.6146C125.396 20.4901 125.113 20.4279 124.788 20.4279ZM133.97 21.5613C133.627 21.5613 133.32 21.6369 133.047 21.7881C132.78 21.9393 132.569 22.1527 132.415 22.4283C132.266 22.6995 132.191 23.0176 132.191 23.3821C132.191 23.7467 132.266 24.0666 132.415 24.3422C132.569 24.6179 132.78 24.8313 133.047 24.9825C133.32 25.1336 133.627 25.2092 133.97 25.2092C134.211 25.2092 134.431 25.1672 134.629 25.0827C134.831 24.9982 135 24.8716 135.136 24.7026V25.1624H135.92V21.6014H135.096V22.0349C134.956 21.8793 134.789 21.7616 134.596 21.6816C134.407 21.6016 134.198 21.5613 133.97 21.5613ZM140.892 21.6014V23.6356C140.892 24.1558 141.026 24.549 141.294 24.8158C141.567 25.0781 141.938 25.2092 142.408 25.2092C142.636 25.2092 142.849 25.1672 143.047 25.0827C143.244 24.9937 143.409 24.8694 143.541 24.7093V25.1624H144.325V21.6014H143.501V23.4022C143.501 23.7489 143.414 24.0156 143.238 24.2023C143.067 24.3846 142.834 24.4759 142.539 24.4759C142.276 24.4759 142.072 24.398 141.927 24.2424C141.786 24.0824 141.716 23.8421 141.716 23.522V21.6014H140.892ZM134.062 22.2683C134.365 22.2683 134.616 22.3708 134.813 22.5753C135.011 22.7798 135.109 23.0487 135.109 23.3821C135.109 23.7156 135.011 23.9845 134.813 24.189C134.616 24.3935 134.365 24.4959 134.062 24.4959C133.759 24.4959 133.509 24.3935 133.311 24.189C133.118 23.9845 133.021 23.7156 133.021 23.3821C133.021 23.0487 133.118 22.7798 133.311 22.5753C133.509 22.3708 133.759 22.2683 134.062 22.2683ZM130.627 27.5609C130.478 27.5609 130.353 27.6102 130.252 27.7079C130.151 27.8013 130.1 27.919 130.1 28.0612C130.1 28.2035 130.151 28.3234 130.252 28.4212C130.353 28.5146 130.478 28.5615 130.627 28.5615C130.781 28.5615 130.906 28.5123 131.003 28.4146C131.104 28.3123 131.154 28.1879 131.154 28.0412C131.154 27.9034 131.104 27.7902 131.003 27.7013C130.902 27.6079 130.776 27.5609 130.627 27.5609ZM151.118 27.761V32.7093H151.942V30.909C151.942 30.5622 152.029 30.2974 152.205 30.1151C152.381 29.9284 152.62 29.8353 152.923 29.8353C153.191 29.8353 153.397 29.9154 153.542 30.0754C153.687 30.231 153.76 30.4641 153.76 30.7754V32.7093H154.583V30.6688C154.583 30.1531 154.449 29.7639 154.181 29.5016C153.914 29.2393 153.558 29.1082 153.114 29.1082C152.868 29.1082 152.644 29.1484 152.442 29.2285C152.244 29.3041 152.078 29.415 151.942 29.5617V27.761H151.118ZM122.508 28.0412V30.8221C122.508 31.4579 122.671 31.9424 122.996 32.2758C123.321 32.6093 123.784 32.7761 124.386 32.7761C124.711 32.7761 124.996 32.7251 125.242 32.6229C125.492 32.5162 125.695 32.3717 125.849 32.1894C125.998 32.3717 126.198 32.5162 126.448 32.6229C126.703 32.7251 126.993 32.7761 127.318 32.7761C127.919 32.7761 128.38 32.6115 128.701 32.2825C129.026 31.9491 129.189 31.4623 129.189 30.8221V28.0412H128.339V30.7954C128.339 31.609 127.998 32.0161 127.318 32.0161C126.624 32.0161 126.276 31.609 126.276 30.7954V28.0412H125.42V30.7954C125.42 31.609 125.075 32.0161 124.386 32.0161C124.052 32.0161 123.797 31.9181 123.622 31.7225C123.45 31.5269 123.364 31.2178 123.364 30.7954V28.0412L122.508 28.0412ZM134.049 29.1082C133.451 29.1082 133.034 29.2952 132.797 29.6686V29.1483H132.013V32.7093H132.837V30.9821C132.837 30.6264 132.927 30.3553 133.107 30.1685C133.287 29.9774 133.537 29.882 133.858 29.882C133.915 29.882 133.978 29.8881 134.049 29.9017V29.1082ZM136.1 29.1082C135.758 29.1082 135.45 29.1838 135.178 29.335C134.91 29.4861 134.699 29.6995 134.545 29.9752C134.396 30.2464 134.322 30.5644 134.322 30.929C134.322 31.2936 134.396 31.6135 134.545 31.8891C134.699 32.1648 134.91 32.3782 135.178 32.5293C135.45 32.6805 135.758 32.7561 136.1 32.7561C136.342 32.7561 136.561 32.714 136.759 32.6295C136.961 32.5451 137.13 32.4181 137.267 32.2491V32.7093H138.05V29.1483H137.227V29.5818C137.086 29.4262 136.919 29.3085 136.726 29.2285C136.537 29.1484 136.329 29.1082 136.1 29.1082ZM144.663 29.1082C144.189 29.1082 143.811 29.2106 143.53 29.4152C143.253 29.6152 143.115 29.8841 143.115 30.222C143.115 30.4798 143.181 30.6821 143.313 30.8288C143.449 30.9711 143.607 31.0713 143.787 31.129C143.971 31.1868 144.209 31.2379 144.498 31.2823C144.775 31.3267 144.975 31.3733 145.098 31.4222C145.225 31.4711 145.289 31.5579 145.289 31.6824C145.289 31.9447 145.043 32.0758 144.551 32.0758C144.336 32.0758 144.116 32.0449 143.892 31.9827C143.673 31.916 143.484 31.8292 143.326 31.7225L143.01 32.356C143.172 32.4716 143.389 32.5673 143.662 32.6429C143.934 32.7185 144.213 32.7561 144.498 32.7561C144.99 32.7561 145.379 32.6563 145.665 32.4562C145.95 32.2562 146.093 31.9891 146.093 31.6557C146.093 31.4023 146.027 31.2067 145.895 31.0689C145.768 30.9311 145.614 30.8331 145.434 30.7754C145.254 30.7176 145.023 30.6665 144.742 30.6221C144.461 30.5732 144.253 30.5222 144.116 30.4688C143.985 30.411 143.919 30.3153 143.919 30.1819C143.919 30.0619 143.98 29.9661 144.103 29.895C144.231 29.8194 144.415 29.7818 144.657 29.7818C145.03 29.7818 145.366 29.8708 145.665 30.0487L145.981 29.4152C145.827 29.3218 145.63 29.2484 145.388 29.1951C145.146 29.1373 144.905 29.1082 144.663 29.1082ZM148.19 29.1082C147.848 29.1082 147.54 29.1838 147.268 29.335C147 29.4861 146.789 29.6995 146.635 29.9752C146.486 30.2464 146.411 30.5644 146.411 30.929C146.411 31.2936 146.486 31.6135 146.635 31.8891C146.789 32.1648 147 32.3782 147.268 32.5293C147.54 32.6805 147.848 32.7561 148.19 32.7561C148.432 32.7561 148.652 32.714 148.849 32.6295C149.051 32.5451 149.22 32.4181 149.356 32.2491V32.7093H150.141V29.1483H149.317V29.5818C149.177 29.4262 149.009 29.3085 148.816 29.2285C148.627 29.1484 148.419 29.1082 148.19 29.1082ZM157.05 29.1082C156.707 29.1082 156.4 29.1838 156.127 29.335C155.859 29.4861 155.649 29.6995 155.495 29.9752C155.346 30.2464 155.271 30.5644 155.271 30.929C155.271 31.2936 155.346 31.6135 155.495 31.8891C155.649 32.1648 155.859 32.3782 156.127 32.5293C156.4 32.6805 156.707 32.7561 157.05 32.7561C157.291 32.7561 157.511 32.714 157.709 32.6295C157.911 32.5451 158.08 32.4181 158.216 32.2491V32.7093H159V29.1483H158.176V29.5818C158.036 29.4262 157.869 29.3085 157.676 29.2285C157.487 29.1484 157.278 29.1082 157.05 29.1082ZM130.212 29.1483V32.7093H131.036V29.1483H130.212ZM139.002 29.1483V31.1821C139.002 31.7023 139.136 32.0959 139.403 32.3627C139.676 32.625 140.047 32.7561 140.517 32.7561C140.745 32.7561 140.958 32.714 141.156 32.6295C141.354 32.5406 141.518 32.4158 141.65 32.2558V32.7093H142.434V29.1483H141.61V30.949C141.61 31.2958 141.523 31.5625 141.347 31.7492C141.176 31.9315 140.943 32.0227 140.649 32.0227C140.385 32.0227 140.181 31.9449 140.036 31.7893C139.895 31.6292 139.825 31.389 139.825 31.0689V29.1483H139.002ZM136.193 29.8152C136.496 29.8152 136.746 29.9173 136.944 30.1218C137.141 30.3263 137.24 30.5956 137.24 30.929C137.24 31.2624 137.141 31.5313 136.944 31.7358C136.746 31.9404 136.496 32.0424 136.193 32.0424C135.89 32.0424 135.639 31.9404 135.441 31.7358C135.248 31.5313 135.152 31.2624 135.152 30.929C135.152 30.5956 135.248 30.3263 135.441 30.1218C135.639 29.9173 135.89 29.8152 136.193 29.8152ZM148.283 29.8152C148.586 29.8152 148.836 29.9173 149.034 30.1218C149.231 30.3263 149.33 30.5956 149.33 30.929C149.33 31.2624 149.231 31.5313 149.034 31.7358C148.836 31.9404 148.586 32.0424 148.283 32.0424C147.98 32.0424 147.729 31.9404 147.531 31.7358C147.338 31.5313 147.241 31.2624 147.241 30.929C147.241 30.5956 147.338 30.3263 147.531 30.1218C147.729 29.9173 147.98 29.8152 148.283 29.8152ZM157.142 29.8152C157.445 29.8152 157.695 29.9173 157.893 30.1218C158.091 30.3263 158.189 30.5956 158.189 30.929C158.189 31.2624 158.091 31.5313 157.893 31.7358C157.695 31.9404 157.445 32.0424 157.142 32.0424C156.839 32.0424 156.589 31.9404 156.391 31.7358C156.198 31.5313 156.101 31.2624 156.101 30.929C156.101 30.5956 156.198 30.3263 156.391 30.1218C156.589 29.9173 156.839 29.8152 157.142 29.8152ZM122.548 35.5881V40.2562H123.404V39.0627L124.136 38.3022L125.763 40.2562H126.764L124.709 37.6753L126.646 35.5881H125.684L123.404 37.9823V35.5881H122.548ZM128.506 36.6551C128.163 36.6551 127.856 36.7307 127.584 36.8819C127.316 37.033 127.105 37.2464 126.951 37.5221C126.802 37.7933 126.727 38.1113 126.727 38.4759C126.727 38.8405 126.802 39.1604 126.951 39.436C127.105 39.7117 127.316 39.925 127.584 40.0762C127.856 40.2274 128.163 40.303 128.506 40.303C128.747 40.303 128.967 40.2609 129.165 40.1764C129.367 40.092 129.536 39.9649 129.672 39.796V40.2562H130.456V36.6952H129.632V37.1287C129.492 36.9731 129.325 36.855 129.132 36.775C128.943 36.6949 128.734 36.6551 128.506 36.6551ZM133.429 36.6551C133.17 36.6551 132.938 36.6972 132.731 36.7816C132.525 36.8661 132.354 36.9909 132.217 37.1554V36.6952H131.433V40.2562H132.257V38.4558C132.257 38.1091 132.345 37.8443 132.521 37.662C132.696 37.4752 132.935 37.3822 133.238 37.3822C133.506 37.3822 133.713 37.4622 133.858 37.6223C134.003 37.7779 134.075 38.011 134.075 38.3222V40.2562H134.899V38.2157C134.899 37.7 134.765 37.3108 134.497 37.0485C134.229 36.7862 133.873 36.6551 133.429 36.6551ZM137.398 36.6551C137.051 36.6551 136.739 36.7329 136.462 36.8885C136.19 37.0442 135.975 37.262 135.817 37.5421C135.663 37.8178 135.587 38.1291 135.587 38.4759C135.587 38.8271 135.665 39.1426 135.823 39.4226C135.986 39.6983 136.214 39.9139 136.509 40.0695C136.803 40.2251 137.143 40.303 137.53 40.303C137.833 40.303 138.105 40.2542 138.347 40.1564C138.588 40.0586 138.786 39.9141 138.94 39.7229L138.505 39.2092C138.25 39.4671 137.932 39.596 137.55 39.596C137.29 39.596 137.069 39.5427 136.884 39.436C136.7 39.3293 136.566 39.1736 136.482 38.9691L139.177 38.4358C139.177 38.0757 139.098 37.7621 138.94 37.4953C138.782 37.2241 138.567 37.0174 138.294 36.8752C138.026 36.7285 137.728 36.6551 137.398 36.6551ZM141.116 36.6551C140.642 36.6551 140.264 36.7575 139.983 36.962C139.706 37.1621 139.568 37.431 139.568 37.7689C139.568 38.0267 139.634 38.229 139.766 38.3757C139.902 38.5179 140.06 38.6181 140.24 38.6759C140.425 38.7337 140.662 38.7847 140.951 38.8292C141.228 38.8736 141.428 38.9202 141.551 38.9691C141.679 39.018 141.742 39.1048 141.742 39.2293C141.742 39.4916 141.496 39.6227 141.004 39.6227C140.789 39.6227 140.569 39.5918 140.345 39.5295C140.126 39.4628 139.937 39.3761 139.779 39.2694L139.463 39.9029C139.625 40.0185 139.842 40.1142 140.115 40.1898C140.387 40.2654 140.666 40.303 140.951 40.303C141.443 40.303 141.832 40.2028 142.118 40.0027C142.403 39.8027 142.546 39.536 142.546 39.2026C142.546 38.9491 142.48 38.7536 142.348 38.6158C142.221 38.478 142.067 38.38 141.887 38.3222C141.707 38.2644 141.476 38.2134 141.195 38.1689C140.914 38.12 140.706 38.069 140.569 38.0157C140.438 37.9579 140.372 37.8622 140.372 37.7288C140.372 37.6088 140.433 37.513 140.556 37.4419C140.684 37.3663 140.868 37.3287 141.11 37.3287C141.483 37.3287 141.819 37.4177 142.118 37.5956L142.434 36.962C142.28 36.8687 142.082 36.7953 141.841 36.7419C141.599 36.6841 141.358 36.6551 141.116 36.6551ZM144.643 36.6551C144.301 36.6551 143.994 36.7307 143.721 36.8819C143.453 37.033 143.242 37.2464 143.089 37.5221C142.939 37.7933 142.865 38.1113 142.865 38.4759C142.865 38.8405 142.939 39.1604 143.089 39.436C143.242 39.7117 143.453 39.925 143.721 40.0762C143.994 40.2274 144.301 40.303 144.643 40.303C144.885 40.303 145.105 40.2609 145.302 40.1764C145.504 40.092 145.673 39.9649 145.81 39.796V40.2562H146.593V36.6952H145.77V37.1287C145.629 36.9731 145.462 36.855 145.269 36.775C145.08 36.6949 144.872 36.6551 144.643 36.6551ZM137.398 37.322C137.644 37.322 137.853 37.3887 138.024 37.5221C138.2 37.6554 138.316 37.8312 138.373 38.0491L136.384 38.4358V38.429C136.384 38.0911 136.476 37.8222 136.66 37.6221C136.849 37.4221 137.095 37.3219 137.398 37.3219V37.322ZM128.598 37.3621C128.901 37.3621 129.151 37.4641 129.349 37.6686C129.547 37.8732 129.646 38.1424 129.646 38.4759C129.646 38.8093 129.547 39.0782 129.349 39.2827C129.151 39.4872 128.901 39.5893 128.598 39.5893C128.295 39.5893 128.044 39.4872 127.847 39.2827C127.654 39.0782 127.557 38.8093 127.557 38.4759C127.557 38.1424 127.654 37.8732 127.847 37.6686C128.044 37.4641 128.295 37.3621 128.598 37.3621ZM144.736 37.3621C145.039 37.3621 145.289 37.4641 145.487 37.6686C145.684 37.8732 145.783 38.1424 145.783 38.4759C145.783 38.8093 145.684 39.0782 145.487 39.2827C145.289 39.4872 145.039 39.5893 144.736 39.5893C144.433 39.5893 144.182 39.4872 143.984 39.2827C143.791 39.0782 143.695 38.8093 143.695 38.4759C143.695 38.1424 143.791 37.8732 143.984 37.6686C144.182 37.4641 144.433 37.3621 144.736 37.3621ZM67.5884 30.5932V29.1748L68.9897 29.1736H70.903V29.1767H71.0054C71.7816 29.1767 72.4065 29.8093 72.4065 30.5951V34.1263V34.7399H69.6042V32.0114H68.9894C68.2132 32.0114 67.5883 31.3789 67.5884 30.5932ZM74.2591 40.2372C71.6347 39.8234 69.6042 37.5065 69.6042 34.74H72.4065V36.7813C72.4085 37.4675 72.5788 38.1426 72.9022 38.7458C73.2255 39.349 73.6918 39.8615 74.2591 40.2372Z" fill="white"/>
<path d="M50.0225 1V46.5562" stroke="white" stroke-linecap="round" stroke-linejoin="round"/>
</svg>
